<svg xmlns="http://www.w3.org/2000/svg" xmlns:xlink="http://www.w3.org/1999/xlink" fill="none" version="1.1" width="16" height="16" viewBox="0 0 16 16"><defs><clipPath id="master_svg0_0_10791"><rect x="0" y="0" width="16" height="16" rx="0"/></clipPath></defs><g clip-path="url(#master_svg0_0_10791)"><g><path d="M14.5,9.999999761581421C14.5,9.723859761581421,14.2761,9.499999761581421,14,9.499999761581421C13.7239,9.499999761581421,13.5,9.723859761581421,13.5,9.999999761581421C13.5,9.999999761581421,14.5,9.999999761581421,14.5,9.999999761581421C14.5,9.999999761581421,14.5,9.999999761581421,14.5,9.999999761581421ZM2,12.666699761581421C2,12.666699761581421,1.5,12.666699761581421,1.5,12.666699761581421C1.5,12.666699761581421,2,12.666699761581421,2,12.666699761581421C2,12.666699761581421,2,12.666699761581421,2,12.666699761581421ZM2.5,9.999999761581421C2.5,9.723859761581421,2.276142,9.499999761581421,2,9.499999761581421C1.723858,9.499999761581421,1.5,9.723859761581421,1.5,9.999999761581421C1.5,9.999999761581421,2.5,9.999999761581421,2.5,9.999999761581421C2.5,9.999999761581421,2.5,9.999999761581421,2.5,9.999999761581421ZM10.97978,5.686889761581421C11.17504,5.882149761581421,11.49162,5.882149761581421,11.6869,5.686889761581421C11.8821,5.491619761581421,11.8821,5.175039761581421,11.6869,4.979779761581421C11.6869,4.979779761581421,10.97978,5.686889761581421,10.97978,5.686889761581421C10.97978,5.686889761581421,10.97978,5.686889761581421,10.97978,5.686889761581421ZM8,1.999999761581421C8,1.999999761581421,8.35355,1.646446761581421,8.35355,1.646446761581421C8.158290000000001,1.4511840615814209,7.84171,1.4511840615814209,7.64645,1.646446761581421C7.64645,1.646446761581421,8,1.999999761581421,8,1.999999761581421C8,1.999999761581421,8,1.999999761581421,8,1.999999761581421ZM4.31311,4.979779761581421C4.11785,5.175039761581421,4.11785,5.491619761581421,4.31311,5.686889761581421C4.50838,5.882149761581421,4.82496,5.882149761581421,5.02022,5.686889761581421C5.02022,5.686889761581421,4.31311,4.979779761581421,4.31311,4.979779761581421C4.31311,4.979779761581421,4.31311,4.979779761581421,4.31311,4.979779761581421ZM7.5,9.999999761581421C7.5,10.27613976158142,7.72386,10.499999761581421,8,10.499999761581421C8.27614,10.499999761581421,8.5,10.27613976158142,8.5,9.999999761581421C8.5,9.999999761581421,7.5,9.999999761581421,7.5,9.999999761581421C7.5,9.999999761581421,7.5,9.999999761581421,7.5,9.999999761581421ZM13.5,9.999999761581421C13.5,9.999999761581421,13.5,12.666699761581421,13.5,12.666699761581421C13.5,12.666699761581421,14.5,12.666699761581421,14.5,12.666699761581421C14.5,12.666699761581421,14.5,9.999999761581421,14.5,9.999999761581421C14.5,9.999999761581421,13.5,9.999999761581421,13.5,9.999999761581421C13.5,9.999999761581421,13.5,9.999999761581421,13.5,9.999999761581421ZM13.5,12.666699761581421C13.5,12.887699761581421,13.4122,13.099599761581421,13.2559,13.255899761581421C13.2559,13.255899761581421,13.963,13.96299976158142,13.963,13.96299976158142C14.3068,13.61919976158142,14.5,13.152899761581422,14.5,12.666699761581421C14.5,12.666699761581421,13.5,12.666699761581421,13.5,12.666699761581421C13.5,12.666699761581421,13.5,12.666699761581421,13.5,12.666699761581421ZM13.2559,13.255899761581421C13.0996,13.412199761581421,12.8877,13.499999761581421,12.6667,13.499999761581421C12.6667,13.499999761581421,12.6667,14.499999761581421,12.6667,14.499999761581421C13.1529,14.499999761581421,13.6192,14.306799761581422,13.963,13.96299976158142C13.963,13.96299976158142,13.2559,13.255899761581421,13.2559,13.255899761581421C13.2559,13.255899761581421,13.2559,13.255899761581421,13.2559,13.255899761581421ZM12.6667,13.499999761581421C12.6667,13.499999761581421,3.33333,13.499999761581421,3.33333,13.499999761581421C3.33333,13.499999761581421,3.33333,14.499999761581421,3.33333,14.499999761581421C3.33333,14.499999761581421,12.6667,14.499999761581421,12.6667,14.499999761581421C12.6667,14.499999761581421,12.6667,13.499999761581421,12.6667,13.499999761581421C12.6667,13.499999761581421,12.6667,13.499999761581421,12.6667,13.499999761581421ZM3.33333,13.499999761581421C3.11232,13.499999761581421,2.90036,13.412199761581421,2.7440800000000003,13.255899761581421C2.7440800000000003,13.255899761581421,2.036971,13.96299976158142,2.036971,13.96299976158142C2.3807869999999998,14.306799761581422,2.8471,14.499999761581421,3.33333,14.499999761581421C3.33333,14.499999761581421,3.33333,13.499999761581421,3.33333,13.499999761581421C3.33333,13.499999761581421,3.33333,13.499999761581421,3.33333,13.499999761581421ZM2.7440800000000003,13.255899761581421C2.5878,13.099599761581421,2.5,12.887699761581421,2.5,12.666699761581421C2.5,12.666699761581421,1.5,12.666699761581421,1.5,12.666699761581421C1.5,13.152899761581422,1.693154,13.61919976158142,2.036971,13.96299976158142C2.036971,13.96299976158142,2.7440800000000003,13.255899761581421,2.7440800000000003,13.255899761581421C2.7440800000000003,13.255899761581421,2.7440800000000003,13.255899761581421,2.7440800000000003,13.255899761581421ZM2.5,12.666699761581421C2.5,12.666699761581421,2.5,9.999999761581421,2.5,9.999999761581421C2.5,9.999999761581421,1.5,9.999999761581421,1.5,9.999999761581421C1.5,9.999999761581421,1.5,12.666699761581421,1.5,12.666699761581421C1.5,12.666699761581421,2.5,12.666699761581421,2.5,12.666699761581421C2.5,12.666699761581421,2.5,12.666699761581421,2.5,12.666699761581421ZM11.6869,4.979779761581421C11.6869,4.979779761581421,8.35355,1.646446761581421,8.35355,1.646446761581421C8.35355,1.646446761581421,7.64645,2.3535527615814207,7.64645,2.3535527615814207C7.64645,2.3535527615814207,10.97978,5.686889761581421,10.97978,5.686889761581421C10.97978,5.686889761581421,11.6869,4.979779761581421,11.6869,4.979779761581421C11.6869,4.979779761581421,11.6869,4.979779761581421,11.6869,4.979779761581421ZM7.64645,1.646446761581421C7.64645,1.646446761581421,4.31311,4.979779761581421,4.31311,4.979779761581421C4.31311,4.979779761581421,5.02022,5.686889761581421,5.02022,5.686889761581421C5.02022,5.686889761581421,8.35355,2.3535527615814207,8.35355,2.3535527615814207C8.35355,2.3535527615814207,7.64645,1.646446761581421,7.64645,1.646446761581421C7.64645,1.646446761581421,7.64645,1.646446761581421,7.64645,1.646446761581421ZM7.5,1.999999761581421C7.5,1.999999761581421,7.5,9.999999761581421,7.5,9.999999761581421C7.5,9.999999761581421,8.5,9.999999761581421,8.5,9.999999761581421C8.5,9.999999761581421,8.5,1.999999761581421,8.5,1.999999761581421C8.5,1.999999761581421,7.5,1.999999761581421,7.5,1.999999761581421C7.5,1.999999761581421,7.5,1.999999761581421,7.5,1.999999761581421Z" fill="#09090B" fill-opacity="1"/></g></g></svg>