<svg xmlns="http://www.w3.org/2000/svg" xmlns:xlink="http://www.w3.org/1999/xlink" fill="none" version="1.1" width="14" height="14" viewBox="0 0 14 14"><defs><clipPath id="master_svg0_0_10954"><rect x="0" y="0" width="14" height="14" rx="0"/></clipPath></defs><g clip-path="url(#master_svg0_0_10954)"><g><path d="M8.4582763671875,1.166650390625C8.4582763671875,1.166650390625,8.705756367187501,0.919163390625,8.705756367187501,0.919163390625C8.6401263671875,0.853525190625,8.5511063671875,0.816650390625,8.4582763671875,0.816650390625C8.4582763671875,0.816650390625,8.4582763671875,1.166650390625,8.4582763671875,1.166650390625C8.4582763671875,1.166650390625,8.4582763671875,1.166650390625,8.4582763671875,1.166650390625ZM3.4999463671875,1.166650390625C3.4999463671875,1.166650390625,3.4999463671875,0.816650390625,3.4999463671875,0.816650390625C3.4999463671875,0.816650390625,3.4999463671875,1.166650390625,3.4999463671875,1.166650390625C3.4999463671875,1.166650390625,3.4999463671875,1.166650390625,3.4999463671875,1.166650390625ZM2.3332763671875,2.333320390625C2.3332763671875,2.333320390625,1.9832763671875,2.333320390625,1.9832763671875,2.333320390625C1.9832763671875,2.333320390625,2.3332763671875,2.333320390625,2.3332763671875,2.333320390625C2.3332763671875,2.333320390625,2.3332763671875,2.333320390625,2.3332763671875,2.333320390625ZM2.3332763671875,11.666650390625C2.3332763671875,11.666650390625,1.9832763671875,11.666650390625,1.9832763671875,11.666650390625C1.9832763671875,11.666650390625,2.3332763671875,11.666650390625,2.3332763671875,11.666650390625C2.3332763671875,11.666650390625,2.3332763671875,11.666650390625,2.3332763671875,11.666650390625ZM11.6666063671875,4.374980390625C11.6666063671875,4.374980390625,12.0165763671875,4.374980390625,12.0165763671875,4.374980390625C12.0165763671875,4.2821503906250005,11.9797263671875,4.193130390625,11.9140963671875,4.127500390625C11.9140963671875,4.127500390625,11.6666063671875,4.374980390625,11.6666063671875,4.374980390625C11.6666063671875,4.374980390625,11.6666063671875,4.374980390625,11.6666063671875,4.374980390625ZM8.4582763671875,0.816650390625C8.4582763671875,0.816650390625,3.4999463671875,0.816650390625,3.4999463671875,0.816650390625C3.4999463671875,0.816650390625,3.4999463671875,1.516650390625,3.4999463671875,1.516650390625C3.4999463671875,1.516650390625,8.4582763671875,1.516650390625,8.4582763671875,1.516650390625C8.4582763671875,1.516650390625,8.4582763671875,0.816650390625,8.4582763671875,0.816650390625C8.4582763671875,0.816650390625,8.4582763671875,0.816650390625,8.4582763671875,0.816650390625ZM3.4999463671875,0.816650390625C3.0976963671875,0.816650390625,2.7119273671875,0.976441390625,2.4274973671874998,1.260871390625C2.4274973671874998,1.260871390625,2.9224723671875,1.755846390625,2.9224723671875,1.755846390625C3.0756263671874997,1.6026923906250001,3.2833463671875,1.516650390625,3.4999463671875,1.516650390625C3.4999463671875,1.516650390625,3.4999463671875,0.816650390625,3.4999463671875,0.816650390625C3.4999463671875,0.816650390625,3.4999463671875,0.816650390625,3.4999463671875,0.816650390625ZM2.4274973671874998,1.260871390625C2.1430673671875,1.5453013906250002,1.9832763671875,1.931070390625,1.9832763671875,2.333320390625C1.9832763671875,2.333320390625,2.6832763671875,2.333320390625,2.6832763671875,2.333320390625C2.6832763671875,2.116720390625,2.7693183671875,1.909000390625,2.9224723671875,1.755846390625C2.9224723671875,1.755846390625,2.4274973671874998,1.260871390625,2.4274973671874998,1.260871390625C2.4274973671874998,1.260871390625,2.4274973671874998,1.260871390625,2.4274973671874998,1.260871390625ZM1.9832763671875,2.333320390625C1.9832763671875,2.333320390625,1.9832763671875,11.666650390625,1.9832763671875,11.666650390625C1.9832763671875,11.666650390625,2.6832763671875,11.666650390625,2.6832763671875,11.666650390625C2.6832763671875,11.666650390625,2.6832763671875,2.333320390625,2.6832763671875,2.333320390625C2.6832763671875,2.333320390625,1.9832763671875,2.333320390625,1.9832763671875,2.333320390625C1.9832763671875,2.333320390625,1.9832763671875,2.333320390625,1.9832763671875,2.333320390625ZM1.9832763671875,11.666650390625C1.9832763671875,12.068850390625,2.1430673671875,12.454650390625,2.4274973671874998,12.739050390625C2.4274973671874998,12.739050390625,2.9224723671875,12.244150390625,2.9224723671875,12.244150390625C2.7693183671875,12.090950390625,2.6832763671875,11.883250390625,2.6832763671875,11.666650390625C2.6832763671875,11.666650390625,1.9832763671875,11.666650390625,1.9832763671875,11.666650390625C1.9832763671875,11.666650390625,1.9832763671875,11.666650390625,1.9832763671875,11.666650390625ZM2.4274973671874998,12.739050390625C2.7119273671875,13.023450390625,3.0976963671875,13.183350390625,3.4999463671875,13.183350390625C3.4999463671875,13.183350390625,3.4999463671875,12.483350390625,3.4999463671875,12.483350390625C3.2833463671875,12.483350390625,3.0756263671874997,12.397250390625,2.9224723671875,12.244150390625C2.9224723671875,12.244150390625,2.4274973671874998,12.739050390625,2.4274973671874998,12.739050390625C2.4274973671874998,12.739050390625,2.4274973671874998,12.739050390625,2.4274973671874998,12.739050390625ZM3.4999463671875,13.183350390625C3.4999463671875,13.183350390625,10.4999463671875,13.183350390625,10.4999463671875,13.183350390625C10.4999463671875,13.183350390625,10.4999463671875,12.483350390625,10.4999463671875,12.483350390625C10.4999463671875,12.483350390625,3.4999463671875,12.483350390625,3.4999463671875,12.483350390625C3.4999463671875,12.483350390625,3.4999463671875,13.183350390625,3.4999463671875,13.183350390625C3.4999463671875,13.183350390625,3.4999463671875,13.183350390625,3.4999463671875,13.183350390625ZM10.4999463671875,13.183350390625C10.9021863671875,13.183350390625,11.2879563671875,13.023450390625,11.5723863671875,12.739050390625C11.5723863671875,12.739050390625,11.0774063671875,12.244150390625,11.0774063671875,12.244150390625C10.9242563671875,12.397250390625,10.7165363671875,12.483350390625,10.4999463671875,12.483350390625C10.4999463671875,12.483350390625,10.4999463671875,13.183350390625,10.4999463671875,13.183350390625C10.4999463671875,13.183350390625,10.4999463671875,13.183350390625,10.4999463671875,13.183350390625ZM11.5723863671875,12.739050390625C11.8568263671875,12.454650390625,12.0165763671875,12.068850390625,12.0165763671875,11.666650390625C12.0165763671875,11.666650390625,11.3166063671875,11.666650390625,11.3166063671875,11.666650390625C11.3166063671875,11.883250390625,11.2305663671875,12.090950390625,11.0774063671875,12.244150390625C11.0774063671875,12.244150390625,11.5723863671875,12.739050390625,11.5723863671875,12.739050390625C11.5723863671875,12.739050390625,11.5723863671875,12.739050390625,11.5723863671875,12.739050390625ZM12.0165763671875,11.666650390625C12.0165763671875,11.666650390625,12.0165763671875,4.374980390625,12.0165763671875,4.374980390625C12.0165763671875,4.374980390625,11.3166063671875,4.374980390625,11.3166063671875,4.374980390625C11.3166063671875,4.374980390625,11.3166063671875,11.666650390625,11.3166063671875,11.666650390625C11.3166063671875,11.666650390625,12.0165763671875,11.666650390625,12.0165763671875,11.666650390625C12.0165763671875,11.666650390625,12.0165763671875,11.666650390625,12.0165763671875,11.666650390625ZM11.9140963671875,4.127500390625C11.9140963671875,4.127500390625,8.705756367187501,0.919163390625,8.705756367187501,0.919163390625C8.705756367187501,0.919163390625,8.210786367187499,1.414137390625,8.210786367187499,1.414137390625C8.210786367187499,1.414137390625,11.4191263671875,4.622470390625001,11.4191263671875,4.622470390625001C11.4191263671875,4.622470390625001,11.9140963671875,4.127500390625,11.9140963671875,4.127500390625C11.9140963671875,4.127500390625,11.9140963671875,4.127500390625,11.9140963671875,4.127500390625Z" fill="#020617" fill-opacity="1"/></g><g><path d="M8.516604614257812,1.166650390625C8.516604614257812,0.973351390625,8.359903614257812,0.816650390625,8.166604614257812,0.816650390625C7.9733056142578125,0.816650390625,7.8166046142578125,0.973351390625,7.8166046142578125,1.166650390625C7.8166046142578125,1.166650390625,8.516604614257812,1.166650390625,8.516604614257812,1.166650390625C8.516604614257812,1.166650390625,8.516604614257812,1.166650390625,8.516604614257812,1.166650390625ZM8.166604614257812,4.666650390625C8.166604614257812,4.666650390625,7.8166046142578125,4.666650390625,7.8166046142578125,4.666650390625C7.8166046142578125,4.859950390625,7.9733056142578125,5.016650390625,8.166604614257812,5.016650390625C8.166604614257812,5.016650390625,8.166604614257812,4.666650390625,8.166604614257812,4.666650390625C8.166604614257812,4.666650390625,8.166604614257812,4.666650390625,8.166604614257812,4.666650390625ZM11.666604614257812,5.016650390625C11.859904614257813,5.016650390625,12.016604614257812,4.859950390625,12.016604614257812,4.666650390625C12.016604614257812,4.473340390625,11.859904614257813,4.316650390625,11.666604614257812,4.316650390625C11.666604614257812,4.316650390625,11.666604614257812,5.016650390625,11.666604614257812,5.016650390625C11.666604614257812,5.016650390625,11.666604614257812,5.016650390625,11.666604614257812,5.016650390625ZM7.8166046142578125,1.166650390625C7.8166046142578125,1.166650390625,7.8166046142578125,4.666650390625,7.8166046142578125,4.666650390625C7.8166046142578125,4.666650390625,8.516604614257812,4.666650390625,8.516604614257812,4.666650390625C8.516604614257812,4.666650390625,8.516604614257812,1.166650390625,8.516604614257812,1.166650390625C8.516604614257812,1.166650390625,7.8166046142578125,1.166650390625,7.8166046142578125,1.166650390625C7.8166046142578125,1.166650390625,7.8166046142578125,1.166650390625,7.8166046142578125,1.166650390625ZM8.166604614257812,5.016650390625C8.166604614257812,5.016650390625,11.666604614257812,5.016650390625,11.666604614257812,5.016650390625C11.666604614257812,5.016650390625,11.666604614257812,4.316650390625,11.666604614257812,4.316650390625C11.666604614257812,4.316650390625,8.166604614257812,4.316650390625,8.166604614257812,4.316650390625C8.166604614257812,4.316650390625,8.166604614257812,5.016650390625,8.166604614257812,5.016650390625C8.166604614257812,5.016650390625,8.166604614257812,5.016650390625,8.166604614257812,5.016650390625Z" fill="#020617" fill-opacity="1"/></g><g><path d="M9.333274614257814,7.9332763671875C9.526574614257813,7.9332763671875,9.683274614257812,7.7765753671875,9.683274614257812,7.5832763671875C9.683274614257812,7.3899773671875,9.526574614257813,7.2332763671875,9.333274614257814,7.2332763671875C9.333274614257814,7.2332763671875,9.333274614257814,7.9332763671875,9.333274614257814,7.9332763671875C9.333274614257814,7.9332763671875,9.333274614257814,7.9332763671875,9.333274614257814,7.9332763671875ZM4.666604614257812,7.2332763671875C4.4733056142578125,7.2332763671875,4.3166046142578125,7.3899773671875,4.3166046142578125,7.5832763671875C4.3166046142578125,7.7765753671875,4.4733056142578125,7.9332763671875,4.666604614257812,7.9332763671875C4.666604614257812,7.9332763671875,4.666604614257812,7.2332763671875,4.666604614257812,7.2332763671875C4.666604614257812,7.2332763671875,4.666604614257812,7.2332763671875,4.666604614257812,7.2332763671875ZM9.333274614257814,7.2332763671875C9.333274614257814,7.2332763671875,4.666604614257812,7.2332763671875,4.666604614257812,7.2332763671875C4.666604614257812,7.2332763671875,4.666604614257812,7.9332763671875,4.666604614257812,7.9332763671875C4.666604614257812,7.9332763671875,9.333274614257814,7.9332763671875,9.333274614257814,7.9332763671875C9.333274614257814,7.9332763671875,9.333274614257814,7.2332763671875,9.333274614257814,7.2332763671875C9.333274614257814,7.2332763671875,9.333274614257814,7.2332763671875,9.333274614257814,7.2332763671875Z" fill="#020617" fill-opacity="1"/></g><g><path d="M9.333274614257814,10.266650390625C9.526574614257813,10.266650390625,9.683274614257812,10.109949390625,9.683274614257812,9.916650390625C9.683274614257812,9.723351390625,9.526574614257813,9.566650390625,9.333274614257814,9.566650390625C9.333274614257814,9.566650390625,9.333274614257814,10.266650390625,9.333274614257814,10.266650390625C9.333274614257814,10.266650390625,9.333274614257814,10.266650390625,9.333274614257814,10.266650390625ZM4.666604614257812,9.566650390625C4.4733056142578125,9.566650390625,4.3166046142578125,9.723351390625,4.3166046142578125,9.916650390625C4.3166046142578125,10.109949390625,4.4733056142578125,10.266650390625,4.666604614257812,10.266650390625C4.666604614257812,10.266650390625,4.666604614257812,9.566650390625,4.666604614257812,9.566650390625C4.666604614257812,9.566650390625,4.666604614257812,9.566650390625,4.666604614257812,9.566650390625ZM9.333274614257814,9.566650390625C9.333274614257814,9.566650390625,4.666604614257812,9.566650390625,4.666604614257812,9.566650390625C4.666604614257812,9.566650390625,4.666604614257812,10.266650390625,4.666604614257812,10.266650390625C4.666604614257812,10.266650390625,9.333274614257814,10.266650390625,9.333274614257814,10.266650390625C9.333274614257814,10.266650390625,9.333274614257814,9.566650390625,9.333274614257814,9.566650390625C9.333274614257814,9.566650390625,9.333274614257814,9.566650390625,9.333274614257814,9.566650390625Z" fill="#020617" fill-opacity="1"/></g><g><path d="M5.833274614257812,5.59990234375C6.026574614257813,5.59990234375,6.1832746142578126,5.44320134375,6.1832746142578126,5.24990234375C6.1832746142578126,5.05660334375,6.026574614257813,4.89990234375,5.833274614257812,4.89990234375C5.833274614257812,4.89990234375,5.833274614257812,5.59990234375,5.833274614257812,5.59990234375C5.833274614257812,5.59990234375,5.833274614257812,5.59990234375,5.833274614257812,5.59990234375ZM4.666604614257812,4.89990234375C4.4733056142578125,4.89990234375,4.3166046142578125,5.05660334375,4.3166046142578125,5.24990234375C4.3166046142578125,5.44320134375,4.4733056142578125,5.59990234375,4.666604614257812,5.59990234375C4.666604614257812,5.59990234375,4.666604614257812,4.89990234375,4.666604614257812,4.89990234375C4.666604614257812,4.89990234375,4.666604614257812,4.89990234375,4.666604614257812,4.89990234375ZM5.833274614257812,4.89990234375C5.833274614257812,4.89990234375,4.666604614257812,4.89990234375,4.666604614257812,4.89990234375C4.666604614257812,4.89990234375,4.666604614257812,5.59990234375,4.666604614257812,5.59990234375C4.666604614257812,5.59990234375,5.833274614257812,5.59990234375,5.833274614257812,5.59990234375C5.833274614257812,5.59990234375,5.833274614257812,4.89990234375,5.833274614257812,4.89990234375C5.833274614257812,4.89990234375,5.833274614257812,4.89990234375,5.833274614257812,4.89990234375Z" fill="#020617" fill-opacity="1"/></g></g></svg>