<svg xmlns="http://www.w3.org/2000/svg" xmlns:xlink="http://www.w3.org/1999/xlink" fill="none" version="1.1" width="16" height="16" viewBox="0 0 16 16"><defs><clipPath id="master_svg0_0_10236"><rect x="0" y="0" width="16" height="16" rx="0"/></clipPath></defs><g clip-path="url(#master_svg0_0_10236)"><g><path d="M5.260576149932861,5.793912601318359C5.073120149932861,5.981362601318359,5.073120149932861,6.285282601318359,5.260576149932861,6.472732601318359C5.448032149932861,6.660182601318359,5.751947149932861,6.660182601318359,5.939403149932861,6.472732601318359C5.939403149932861,6.472732601318359,7.999994149932862,4.41214260131836,7.999994149932862,4.41214260131836C7.999994149932862,4.41214260131836,10.060574149932862,6.472732601318359,10.060574149932862,6.472732601318359C10.248034149932861,6.660182601318359,10.551944149932861,6.660182601318359,10.739414149932863,6.472732601318359C10.926824149932862,6.285282601318359,10.926824149932862,5.981362601318359,10.739414149932863,5.793912601318359C10.739414149932863,5.793912601318359,8.33940414993286,3.3939096013183594,8.33940414993286,3.3939096013183594C8.249374149932862,3.3038934013183594,8.127284149932862,3.2533226013183594,7.999994149932862,3.2533226013183594C7.872684149932861,3.2533226013183594,7.750594149932861,3.3038934013183594,7.660574149932861,3.3939096013183594C7.660574149932861,3.3939096013183594,5.260576149932861,5.793912601318359,5.260576149932861,5.793912601318359C5.260576149932861,5.793912601318359,5.260576149932861,5.793912601318359,5.260576149932861,5.793912601318359ZM10.739414149932863,10.20607260131836C10.926824149932862,10.01861260131836,10.926824149932862,9.71470260131836,10.739414149932863,9.52724260131836C10.551944149932861,9.33979260131836,10.248034149932861,9.33979260131836,10.060574149932862,9.52724260131836C10.060574149932862,9.52724260131836,7.999994149932862,11.587842601318359,7.999994149932862,11.587842601318359C7.999994149932862,11.587842601318359,5.939403149932861,9.52724260131836,5.939403149932861,9.52724260131836C5.751947149932861,9.33979260131836,5.448032149932861,9.33979260131836,5.260576149932861,9.52724260131836C5.073120149932861,9.71470260131836,5.073120149932861,10.01861260131836,5.260576149932861,10.20607260131836C5.260576149932861,10.20607260131836,7.660574149932861,12.60608260131836,7.660574149932861,12.60608260131836C7.848034149932861,12.79349260131836,8.151944149932861,12.79349260131836,8.33940414993286,12.60608260131836C8.33940414993286,12.60608260131836,10.739414149932863,10.20607260131836,10.739414149932863,10.20607260131836C10.739414149932863,10.20607260131836,10.739414149932863,10.20607260131836,10.739414149932863,10.20607260131836Z" fill-rule="evenodd" fill="#09090B" fill-opacity="1"/><path d="M10.060574149932862,6.472732601318359L9.91617414993286,6.328332601318359L8.707104149932862,5.11925260131836L8.028274149932862,4.440422601318359L7.999994149932862,4.41214260131836L7.971714149932861,4.440422601318359L7.292884149932862,5.11925260131836L6.083782149932861,6.328352601318359L5.939403149932861,6.472732601318359C5.751947149932861,6.660182601318359,5.448032149932861,6.660182601318359,5.260576149932861,6.472732601318359C5.073120149932861,6.285282601318359,5.073120149932861,5.981362601318359,5.260576149932861,5.793912601318359L7.660574149932861,3.3939096013183594C7.750594149932861,3.3038934013183594,7.872684149932861,3.2533226013183594,7.999994149932862,3.2533226013183594C8.127284149932862,3.2533226013183594,8.249374149932862,3.3038934013183594,8.33940414993286,3.3939096013183594L10.59503414993286,5.649532601318359L10.739414149932863,5.793912601318359C10.926824149932862,5.981362601318359,10.926824149932862,6.285282601318359,10.739414149932863,6.472732601318359C10.551944149932861,6.660182601318359,10.248034149932861,6.660182601318359,10.060574149932862,6.472732601318359ZM5.939403149932861,9.52724260131836L6.083778149932861,9.67162260131836L7.292884149932862,10.88073260131836L7.971714149932861,11.55956260131836L7.999994149932862,11.587842601318359L8.028274149932862,11.55956260131836L8.70709414993286,10.88073260131836L9.91618414993286,9.671642601318359L10.060574149932862,9.52724260131836C10.248034149932861,9.33979260131836,10.551944149932861,9.33979260131836,10.739414149932863,9.52724260131836C10.926824149932862,9.71470260131836,10.926824149932862,10.01861260131836,10.739414149932863,10.20607260131836L8.33940414993286,12.60608260131836C8.151944149932861,12.79349260131836,7.848034149932861,12.79349260131836,7.660574149932861,12.60608260131836L5.404948149932862,10.35044260131836L5.260576149932861,10.20607260131836C5.073120149932861,10.01861260131836,5.073120149932861,9.71470260131836,5.260576149932861,9.52724260131836C5.448032149932861,9.33979260131836,5.751947149932861,9.33979260131836,5.939403149932861,9.52724260131836Z" fill-rule="evenodd" fill="#6F6F6F" fill-opacity="1"/></g></g></svg>