<svg width="16" height="16" viewBox="0 0 16 16" fill="none" xmlns="http://www.w3.org/2000/svg">
<path fill-rule="evenodd" clip-rule="evenodd" d="M7.55122 0.237094C7.80027 -0.00790513 8.19979 -0.00790513 8.44885 0.237094L15.6489 7.31978C15.9008 7.56765 15.9041 7.97286 15.6563 8.22483C15.4084 8.47682 15.0032 8.48015 14.7513 8.23227L13.8667 7.36217V13.3334C13.8667 13.6279 13.628 13.8667 13.3333 13.8667H2.6667C2.37215 13.8667 2.13336 13.6279 2.13336 13.3334V7.36217L1.24885 8.23227C0.99687 8.48015 0.591658 8.47682 0.343784 8.22483C0.0959099 7.97286 0.0992383 7.56765 0.351219 7.31978L7.55122 0.237094ZM8.00003 1.5911L12.8 6.31289V12.8H10.6667V9.06668C10.6667 8.77213 10.4279 8.53335 10.1334 8.53335H6.93336C6.63881 8.53335 6.40003 8.77213 6.40003 9.06668V12.8H3.20003V6.31289L8.00003 1.5911ZM7.4667 12.8H9.60003V9.60001H7.4667V12.8Z" fill="#020617"/>
</svg>
