<svg xmlns="http://www.w3.org/2000/svg" xmlns:xlink="http://www.w3.org/1999/xlink" fill="none" version="1.1" width="14" height="14" viewBox="0 0 14 14"><g><g><path d="M6.999353349227905,0.23333334922790527C3.2632533492279054,0.23333334922790527,0.23333334922790527,3.262873349227905,0.23333334922790527,7.0002433492279055C0.23333334922790527,9.989503349227904,2.1720033492279054,12.525933349227905,4.8608833492279055,13.421133349227905C5.199433349227905,13.483033349227906,5.322813349227905,13.274133349227906,5.322813349227905,13.094633349227905C5.322813349227905,12.933833349227905,5.316993349227905,12.508433349227905,5.313663349227905,11.943933349227905C3.4314933492279054,12.352733349227906,3.0343733492279052,11.036733349227905,3.0343733492279052,11.036733349227905C2.7265633492279053,10.254933349227905,2.2829133492279055,10.046813349227905,2.2829133492279055,10.046813349227905C1.6685433492279054,9.627273349227906,2.329443349227905,9.635583349227906,2.329443349227905,9.635583349227906C3.0086133492279052,9.683373349227905,3.3658633492279053,10.333033349227906,3.3658633492279053,10.333033349227906C3.9694333492279052,11.366933349227905,4.949783349227905,11.068233349227905,5.335273349227905,10.895033349227905C5.396753349227906,10.458033349227906,5.5716333492279055,10.159743349227906,5.764793349227905,9.990713349227905C4.262293349227905,9.819543349227905,2.682533349227905,9.239263349227905,2.682533349227905,6.646323349227905C2.682533349227905,5.907323349227905,2.946313349227905,5.303753349227906,3.3791533492279053,4.830603349227905C3.309373349227905,4.659463349227905,3.0771733492279054,3.9715433492279053,3.445613349227905,3.0397933492279052C3.445613349227905,3.0397933492279052,4.013463349227905,2.857843349227905,5.306193349227906,3.7330933492279055C5.845803349227905,3.5831333492279054,6.4248633492279055,3.5083633492279054,7.000193349227906,3.5054533492279054C7.575103349227906,3.5083633492279054,8.153753349227905,3.5831333492279054,8.694193349227906,3.7330933492279055C9.986083349227906,2.857843349227905,10.553033349227904,3.0397933492279052,10.553033349227904,3.0397933492279052C10.922433349227905,3.9715433492279053,10.690233349227904,4.659463349227905,10.620833349227905,4.830603349227905C11.054433349227905,5.303753349227906,11.316133349227906,5.907323349227905,11.316133349227906,6.646323349227905C11.316133349227906,9.245913349227905,9.733893349227905,9.817953349227905,8.226873349227905,9.985303349227905C8.469453349227905,10.194273349227906,8.685883349227906,10.607233349227906,8.685883349227906,11.238633349227905C8.685883349227906,12.142933349227905,8.677573349227906,12.872833349227905,8.677573349227906,13.094633349227905C8.677573349227906,13.275633349227904,8.799703349227904,13.486333349227905,9.142833349227905,13.420233349227905C11.829633349227905,12.523433349227906,13.766633349227906,9.989033349227904,13.766633349227906,7.0002433492279055C13.766633349227906,3.262873349227905,10.736633349227905,0.23333334922790527,6.999353349227905,0.23333334922790527C6.999353349227905,0.23333334922790527,6.999353349227905,0.23333334922790527,6.999353349227905,0.23333334922790527Z" fill-rule="evenodd" fill="#020617" fill-opacity="1"/></g></g></svg>