<svg xmlns="http://www.w3.org/2000/svg" xmlns:xlink="http://www.w3.org/1999/xlink" fill="none" version="1.1" width="12" height="12" viewBox="0 0 12 12"><defs><clipPath id="master_svg0_0_10814"><rect x="0" y="0" width="12" height="12" rx="0"/></clipPath></defs><g clip-path="url(#master_svg0_0_10814)"><g><path d="M10.699999988079071,5.999999988079071C10.699999988079071,8.595739988079071,8.595739988079071,10.699999988079071,5.999999988079071,10.699999988079071C5.999999988079071,10.699999988079071,5.999999988079071,11.29999998807907,5.999999988079071,11.29999998807907C8.92710998807907,11.29999998807907,11.29999998807907,8.92710998807907,11.29999998807907,5.999999988079071C11.29999998807907,5.999999988079071,10.699999988079071,5.999999988079071,10.699999988079071,5.999999988079071C10.699999988079071,5.999999988079071,10.699999988079071,5.999999988079071,10.699999988079071,5.999999988079071ZM5.999999988079071,10.699999988079071C3.404259988079071,10.699999988079071,1.2999999880790711,8.595739988079071,1.2999999880790711,5.999999988079071C1.2999999880790711,5.999999988079071,0.699999988079071,5.999999988079071,0.699999988079071,5.999999988079071C0.699999988079071,8.92710998807907,3.072889988079071,11.29999998807907,5.999999988079071,11.29999998807907C5.999999988079071,11.29999998807907,5.999999988079071,10.699999988079071,5.999999988079071,10.699999988079071C5.999999988079071,10.699999988079071,5.999999988079071,10.699999988079071,5.999999988079071,10.699999988079071ZM1.2999999880790711,5.999999988079071C1.2999999880790711,3.404259988079071,3.404259988079071,1.2999999880790711,5.999999988079071,1.2999999880790711C5.999999988079071,1.2999999880790711,5.999999988079071,0.699999988079071,5.999999988079071,0.699999988079071C3.072889988079071,0.699999988079071,0.699999988079071,3.072889988079071,0.699999988079071,5.999999988079071C0.699999988079071,5.999999988079071,1.2999999880790711,5.999999988079071,1.2999999880790711,5.999999988079071C1.2999999880790711,5.999999988079071,1.2999999880790711,5.999999988079071,1.2999999880790711,5.999999988079071ZM5.999999988079071,1.2999999880790711C8.595739988079071,1.2999999880790711,10.699999988079071,3.404259988079071,10.699999988079071,5.999999988079071C10.699999988079071,5.999999988079071,11.29999998807907,5.999999988079071,11.29999998807907,5.999999988079071C11.29999998807907,3.072889988079071,8.92710998807907,0.699999988079071,5.999999988079071,0.699999988079071C5.999999988079071,0.699999988079071,5.999999988079071,1.2999999880790711,5.999999988079071,1.2999999880790711C5.999999988079071,1.2999999880790711,5.999999988079071,1.2999999880790711,5.999999988079071,1.2999999880790711Z" fill="#525252" fill-opacity="1"/></g><g><path d="M7.712130286102295,4.712132286102295C7.829290286102295,4.594974286102295,7.829290286102295,4.405025286102295,7.712130286102295,4.287868086102295C7.594970286102295,4.170711086102295,7.405030286102295,4.170711086102295,7.2878702861022955,4.287868086102295C7.2878702861022955,4.287868086102295,7.712130286102295,4.712132286102295,7.712130286102295,4.712132286102295C7.712130286102295,4.712132286102295,7.712130286102295,4.712132286102295,7.712130286102295,4.712132286102295ZM4.287868086102295,7.2878702861022955C4.170711086102295,7.405030286102295,4.170711086102295,7.594970286102295,4.287868086102295,7.712130286102295C4.405025286102295,7.829290286102295,4.594974286102295,7.829290286102295,4.712132286102295,7.712130286102295C4.712132286102295,7.712130286102295,4.287868086102295,7.2878702861022955,4.287868086102295,7.2878702861022955C4.287868086102295,7.2878702861022955,4.287868086102295,7.2878702861022955,4.287868086102295,7.2878702861022955ZM7.2878702861022955,4.287868086102295C7.2878702861022955,4.287868086102295,4.287868086102295,7.2878702861022955,4.287868086102295,7.2878702861022955C4.287868086102295,7.2878702861022955,4.712132286102295,7.712130286102295,4.712132286102295,7.712130286102295C4.712132286102295,7.712130286102295,7.712130286102295,4.712132286102295,7.712130286102295,4.712132286102295C7.712130286102295,4.712132286102295,7.2878702861022955,4.287868086102295,7.2878702861022955,4.287868086102295C7.2878702861022955,4.287868086102295,7.2878702861022955,4.287868086102295,7.2878702861022955,4.287868086102295Z" fill="#525252" fill-opacity="1"/></g><g><path d="M4.712132286102295,4.287868086102295C4.594974286102295,4.170711086102295,4.405025286102295,4.170711086102295,4.287868086102295,4.287868086102295C4.170711086102295,4.405025286102295,4.170711086102295,4.594974286102295,4.287868086102295,4.712132286102295C4.287868086102295,4.712132286102295,4.712132286102295,4.287868086102295,4.712132286102295,4.287868086102295C4.712132286102295,4.287868086102295,4.712132286102295,4.287868086102295,4.712132286102295,4.287868086102295ZM7.2878702861022955,7.712130286102295C7.405030286102295,7.829290286102295,7.594970286102295,7.829290286102295,7.712130286102295,7.712130286102295C7.829290286102295,7.594970286102295,7.829290286102295,7.405030286102295,7.712130286102295,7.2878702861022955C7.712130286102295,7.2878702861022955,7.2878702861022955,7.712130286102295,7.2878702861022955,7.712130286102295C7.2878702861022955,7.712130286102295,7.2878702861022955,7.712130286102295,7.2878702861022955,7.712130286102295ZM4.287868086102295,4.712132286102295C4.287868086102295,4.712132286102295,7.2878702861022955,7.712130286102295,7.2878702861022955,7.712130286102295C7.2878702861022955,7.712130286102295,7.712130286102295,7.2878702861022955,7.712130286102295,7.2878702861022955C7.712130286102295,7.2878702861022955,4.712132286102295,4.287868086102295,4.712132286102295,4.287868086102295C4.712132286102295,4.287868086102295,4.287868086102295,4.712132286102295,4.287868086102295,4.712132286102295C4.287868086102295,4.712132286102295,4.287868086102295,4.712132286102295,4.287868086102295,4.712132286102295Z" fill="#525252" fill-opacity="1"/></g></g></svg>