<svg width="16" height="16" viewBox="0 0 16 16" fill="none" xmlns="http://www.w3.org/2000/svg">
<mask id="path-1-inside-1_7546_2288" fill="white">
<path fill-rule="evenodd" clip-rule="evenodd" d="M5.0821 3.33015C6.00694 3.25186 6.99821 3.20003 8 3.20003C9.00179 3.20003 9.99306 3.25186 10.9179 3.33015C12.0316 3.42442 12.7523 3.48811 13.3035 3.61819C13.8053 3.7366 14.0851 3.89311 14.326 4.13961C14.3523 4.16662 14.3895 4.20711 14.4142 4.23568C14.6268 4.48162 14.7664 4.78798 14.8459 5.36838C14.931 5.99 14.9333 6.80156 14.9333 8.02662C14.9333 9.23764 14.931 10.0376 14.846 10.6511C14.7668 11.222 14.6279 11.5265 14.4133 11.7746C14.3889 11.8028 14.351 11.8441 14.3249 11.8706C14.081 12.12 13.8033 12.2748 13.3139 12.3909C12.7735 12.519 12.0686 12.5805 10.9737 12.6717C10.0474 12.7489 9.0407 12.8 8 12.8C6.9593 12.8 5.95256 12.7489 5.02635 12.6717C3.93144 12.5805 3.22642 12.519 2.68604 12.3909C2.19665 12.2748 1.91904 12.12 1.67506 11.8706C1.64899 11.8441 1.61104 11.8028 1.58665 11.7746C1.37203 11.5265 1.23319 11.222 1.15406 10.6511C1.06902 10.0376 1.06667 9.23764 1.06667 8.02662C1.06667 6.80156 1.06897 5.99 1.15413 5.36838C1.23364 4.78798 1.37327 4.48162 1.58577 4.23568C1.61045 4.20711 1.64766 4.16662 1.67405 4.13961C1.91488 3.89311 2.19469 3.7366 2.69649 3.61819C3.24771 3.48811 3.96843 3.42442 5.0821 3.33015ZM0 8.02662C0 5.63519 0 4.43947 0.778651 3.5383C0.817554 3.49327 0.869482 3.43676 0.911065 3.3942C1.74335 2.54231 2.82627 2.45063 4.99213 2.26728C5.94051 2.18699 6.96239 2.13336 8 2.13336C9.03761 2.13336 10.0595 2.18699 11.0079 2.26728C13.1738 2.45063 14.2566 2.54231 15.089 3.3942C15.1306 3.43676 15.1824 3.49327 15.2213 3.5383C16 4.43947 16 5.63519 16 8.02662C16 10.3895 16 11.5709 15.2201 12.4725C15.1814 12.5171 15.1287 12.5744 15.0874 12.6167C14.2538 13.4687 13.1899 13.5574 11.0623 13.7347C10.1117 13.8139 9.07501 13.8667 8 13.8667C6.92499 13.8667 5.8883 13.8139 4.93776 13.7347C2.81009 13.5574 1.74626 13.4687 0.912595 12.6167C0.8713 12.5744 0.818605 12.5171 0.779969 12.4725C0 11.5709 0 10.3895 0 8.02662ZM5.6 5.74151C5.6 5.5491 5.79757 5.42002 5.97377 5.4973L11.1232 7.75582C11.3359 7.84913 11.3359 8.15093 11.1232 8.24424L5.97377 10.5028C5.79757 10.58 5.6 10.451 5.6 10.2585V5.74151Z"/>
</mask>
<path fill-rule="evenodd" clip-rule="evenodd" d="M5.0821 3.33015C6.00694 3.25186 6.99821 3.20003 8 3.20003C9.00179 3.20003 9.99306 3.25186 10.9179 3.33015C12.0316 3.42442 12.7523 3.48811 13.3035 3.61819C13.8053 3.7366 14.0851 3.89311 14.326 4.13961C14.3523 4.16662 14.3895 4.20711 14.4142 4.23568C14.6268 4.48162 14.7664 4.78798 14.8459 5.36838C14.931 5.99 14.9333 6.80156 14.9333 8.02662C14.9333 9.23764 14.931 10.0376 14.846 10.6511C14.7668 11.222 14.6279 11.5265 14.4133 11.7746C14.3889 11.8028 14.351 11.8441 14.3249 11.8706C14.081 12.12 13.8033 12.2748 13.3139 12.3909C12.7735 12.519 12.0686 12.5805 10.9737 12.6717C10.0474 12.7489 9.0407 12.8 8 12.8C6.9593 12.8 5.95256 12.7489 5.02635 12.6717C3.93144 12.5805 3.22642 12.519 2.68604 12.3909C2.19665 12.2748 1.91904 12.12 1.67506 11.8706C1.64899 11.8441 1.61104 11.8028 1.58665 11.7746C1.37203 11.5265 1.23319 11.222 1.15406 10.6511C1.06902 10.0376 1.06667 9.23764 1.06667 8.02662C1.06667 6.80156 1.06897 5.99 1.15413 5.36838C1.23364 4.78798 1.37327 4.48162 1.58577 4.23568C1.61045 4.20711 1.64766 4.16662 1.67405 4.13961C1.91488 3.89311 2.19469 3.7366 2.69649 3.61819C3.24771 3.48811 3.96843 3.42442 5.0821 3.33015ZM0 8.02662C0 5.63519 0 4.43947 0.778651 3.5383C0.817554 3.49327 0.869482 3.43676 0.911065 3.3942C1.74335 2.54231 2.82627 2.45063 4.99213 2.26728C5.94051 2.18699 6.96239 2.13336 8 2.13336C9.03761 2.13336 10.0595 2.18699 11.0079 2.26728C13.1738 2.45063 14.2566 2.54231 15.089 3.3942C15.1306 3.43676 15.1824 3.49327 15.2213 3.5383C16 4.43947 16 5.63519 16 8.02662C16 10.3895 16 11.5709 15.2201 12.4725C15.1814 12.5171 15.1287 12.5744 15.0874 12.6167C14.2538 13.4687 13.1899 13.5574 11.0623 13.7347C10.1117 13.8139 9.07501 13.8667 8 13.8667C6.92499 13.8667 5.8883 13.8139 4.93776 13.7347C2.81009 13.5574 1.74626 13.4687 0.912595 12.6167C0.8713 12.5744 0.818605 12.5171 0.779969 12.4725C0 11.5709 0 10.3895 0 8.02662ZM5.6 5.74151C5.6 5.5491 5.79757 5.42002 5.97377 5.4973L11.1232 7.75582C11.3359 7.84913 11.3359 8.15093 11.1232 8.24424L5.97377 10.5028C5.79757 10.58 5.6 10.451 5.6 10.2585V5.74151Z" fill="#09090B" stroke="#09090B" stroke-width="2" mask="url(#path-1-inside-1_7546_2288)"/>
</svg>
