<svg xmlns="http://www.w3.org/2000/svg" xmlns:xlink="http://www.w3.org/1999/xlink" fill="none" version="1.1" width="16" height="16" viewBox="0 0 16 16"><defs><clipPath id="master_svg0_0_10834"><rect x="0" y="0" width="16" height="16" rx="0"/></clipPath></defs><g clip-path="url(#master_svg0_0_10834)"><g><path d="M4.16667,7.333333373069763C4.16667,7.609473373069763,4.39052,7.833333373069763,4.66667,7.833333373069763C4.94281,7.833333373069763,5.16667,7.609473373069763,5.16667,7.333333373069763C5.16667,7.333333373069763,4.16667,7.333333373069763,4.16667,7.333333373069763C4.16667,7.333333373069763,4.16667,7.333333373069763,4.16667,7.333333373069763ZM4.66667,4.666663373069763C4.66667,4.666663373069763,4.16667,4.666663373069763,4.16667,4.666663373069763C4.16667,4.666663373069763,4.66667,4.666663373069763,4.66667,4.666663373069763C4.66667,4.666663373069763,4.66667,4.666663373069763,4.66667,4.666663373069763ZM8,1.3333333730697632C8,1.3333333730697632,8,0.8333333730697632,8,0.8333333730697632C8,0.8333333730697632,8,1.3333333730697632,8,1.3333333730697632C8,1.3333333730697632,8,1.3333333730697632,8,1.3333333730697632ZM10.83333,7.333333373069763C10.83333,7.609473373069763,11.05719,7.833333373069763,11.33333,7.833333373069763C11.6095,7.833333373069763,11.8333,7.609473373069763,11.8333,7.333333373069763C11.8333,7.333333373069763,10.83333,7.333333373069763,10.83333,7.333333373069763C10.83333,7.333333373069763,10.83333,7.333333373069763,10.83333,7.333333373069763ZM3.33333,7.833333373069763C3.33333,7.833333373069763,12.6667,7.833333373069763,12.6667,7.833333373069763C12.6667,7.833333373069763,12.6667,6.833333373069763,12.6667,6.833333373069763C12.6667,6.833333373069763,3.33333,6.833333373069763,3.33333,6.833333373069763C3.33333,6.833333373069763,3.33333,7.833333373069763,3.33333,7.833333373069763C3.33333,7.833333373069763,3.33333,7.833333373069763,3.33333,7.833333373069763ZM12.6667,7.833333373069763C13.1269,7.833333373069763,13.5,8.206433373069764,13.5,8.666663373069763C13.5,8.666663373069763,14.5,8.666663373069763,14.5,8.666663373069763C14.5,7.654143373069763,13.6792,6.833333373069763,12.6667,6.833333373069763C12.6667,6.833333373069763,12.6667,7.833333373069763,12.6667,7.833333373069763C12.6667,7.833333373069763,12.6667,7.833333373069763,12.6667,7.833333373069763ZM13.5,8.666663373069763C13.5,8.666663373069763,13.5,13.333333373069763,13.5,13.333333373069763C13.5,13.333333373069763,14.5,13.333333373069763,14.5,13.333333373069763C14.5,13.333333373069763,14.5,8.666663373069763,14.5,8.666663373069763C14.5,8.666663373069763,13.5,8.666663373069763,13.5,8.666663373069763C13.5,8.666663373069763,13.5,8.666663373069763,13.5,8.666663373069763ZM13.5,13.333333373069763C13.5,13.793533373069764,13.1269,14.166633373069763,12.6667,14.166633373069763C12.6667,14.166633373069763,12.6667,15.166633373069763,12.6667,15.166633373069763C13.6792,15.166633373069763,14.5,14.345833373069762,14.5,13.333333373069763C14.5,13.333333373069763,13.5,13.333333373069763,13.5,13.333333373069763C13.5,13.333333373069763,13.5,13.333333373069763,13.5,13.333333373069763ZM12.6667,14.166633373069763C12.6667,14.166633373069763,3.33333,14.166633373069763,3.33333,14.166633373069763C3.33333,14.166633373069763,3.33333,15.166633373069763,3.33333,15.166633373069763C3.33333,15.166633373069763,12.6667,15.166633373069763,12.6667,15.166633373069763C12.6667,15.166633373069763,12.6667,14.166633373069763,12.6667,14.166633373069763C12.6667,14.166633373069763,12.6667,14.166633373069763,12.6667,14.166633373069763ZM3.33333,14.166633373069763C2.8731,14.166633373069763,2.5,13.793533373069764,2.5,13.333333373069763C2.5,13.333333373069763,1.5,13.333333373069763,1.5,13.333333373069763C1.5,14.345833373069762,2.320811,15.166633373069763,3.33333,15.166633373069763C3.33333,15.166633373069763,3.33333,14.166633373069763,3.33333,14.166633373069763C3.33333,14.166633373069763,3.33333,14.166633373069763,3.33333,14.166633373069763ZM2.5,13.333333373069763C2.5,13.333333373069763,2.5,8.666663373069763,2.5,8.666663373069763C2.5,8.666663373069763,1.5,8.666663373069763,1.5,8.666663373069763C1.5,8.666663373069763,1.5,13.333333373069763,1.5,13.333333373069763C1.5,13.333333373069763,2.5,13.333333373069763,2.5,13.333333373069763C2.5,13.333333373069763,2.5,13.333333373069763,2.5,13.333333373069763ZM2.5,8.666663373069763C2.5,8.206433373069764,2.8731,7.833333373069763,3.33333,7.833333373069763C3.33333,7.833333373069763,3.33333,6.833333373069763,3.33333,6.833333373069763C2.320811,6.833333373069763,1.5,7.654143373069763,1.5,8.666663373069763C1.5,8.666663373069763,2.5,8.666663373069763,2.5,8.666663373069763C2.5,8.666663373069763,2.5,8.666663373069763,2.5,8.666663373069763ZM5.16667,7.333333373069763C5.16667,7.333333373069763,5.16667,4.666663373069763,5.16667,4.666663373069763C5.16667,4.666663373069763,4.16667,4.666663373069763,4.16667,4.666663373069763C4.16667,4.666663373069763,4.16667,7.333333373069763,4.16667,7.333333373069763C4.16667,7.333333373069763,5.16667,7.333333373069763,5.16667,7.333333373069763C5.16667,7.333333373069763,5.16667,7.333333373069763,5.16667,7.333333373069763ZM5.16667,4.666663373069763C5.16667,3.915223373069763,5.46518,3.194553373069763,5.99653,2.6631933730697632C5.99653,2.6631933730697632,5.28942,1.9560933730697632,5.28942,1.9560933730697632C4.57053,2.674983373069763,4.16667,3.650003373069763,4.16667,4.666663373069763C4.16667,4.666663373069763,5.16667,4.666663373069763,5.16667,4.666663373069763C5.16667,4.666663373069763,5.16667,4.666663373069763,5.16667,4.666663373069763ZM5.99653,2.6631933730697632C6.52788,2.1318433730697635,7.24855,1.8333333730697632,8,1.8333333730697632C8,1.8333333730697632,8,0.8333333730697632,8,0.8333333730697632C6.98334,0.8333333730697632,6.00831,1.2372013730697633,5.28942,1.9560933730697632C5.28942,1.9560933730697632,5.99653,2.6631933730697632,5.99653,2.6631933730697632C5.99653,2.6631933730697632,5.99653,2.6631933730697632,5.99653,2.6631933730697632ZM8,1.8333333730697632C8.75145,1.8333333730697632,9.47212,2.1318433730697635,10.00347,2.6631933730697632C10.00347,2.6631933730697632,10.71058,1.9560933730697632,10.71058,1.9560933730697632C9.99169,1.2372013730697633,9.01666,0.8333333730697632,8,0.8333333730697632C8,0.8333333730697632,8,1.8333333730697632,8,1.8333333730697632C8,1.8333333730697632,8,1.8333333730697632,8,1.8333333730697632ZM10.00347,2.6631933730697632C10.53482,3.194553373069763,10.83333,3.915223373069763,10.83333,4.666663373069763C10.83333,4.666663373069763,11.8333,4.666663373069763,11.8333,4.666663373069763C11.8333,3.650003373069763,11.42947,2.674983373069763,10.71058,1.9560933730697632C10.71058,1.9560933730697632,10.00347,2.6631933730697632,10.00347,2.6631933730697632C10.00347,2.6631933730697632,10.00347,2.6631933730697632,10.00347,2.6631933730697632ZM10.83333,4.666663373069763C10.83333,4.666663373069763,10.83333,7.333333373069763,10.83333,7.333333373069763C10.83333,7.333333373069763,11.8333,7.333333373069763,11.8333,7.333333373069763C11.8333,7.333333373069763,11.8333,4.666663373069763,11.8333,4.666663373069763C11.8333,4.666663373069763,10.83333,4.666663373069763,10.83333,4.666663373069763C10.83333,4.666663373069763,10.83333,4.666663373069763,10.83333,4.666663373069763Z" fill="#09090B" fill-opacity="1"/></g></g></svg>