<svg xmlns="http://www.w3.org/2000/svg" xmlns:xlink="http://www.w3.org/1999/xlink" fill="none" version="1.1" width="24" height="24" viewBox="0 0 24 24"><defs><clipPath id="master_svg0_0_9774"><rect x="0" y="0" width="24" height="24" rx="0"/></clipPath></defs><g clip-path="url(#master_svg0_0_9774)"><g><path d="M14.999998450279236,5.999998450279236C14.999998450279236,5.999998450279236,13.999998450279236,5.999998450279236,13.999998450279236,5.999998450279236C13.999998450279236,5.999998450279236,14.999998450279236,5.999998450279236,14.999998450279236,5.999998450279236C14.999998450279236,5.999998450279236,14.999998450279236,5.999998450279236,14.999998450279236,5.999998450279236ZM17.999998450279236,14.999998450279236C17.999998450279236,14.999998450279236,17.999998450279236,15.999998450279236,17.999998450279236,15.999998450279236C17.999998450279236,15.999998450279236,17.999998450279236,14.999998450279236,17.999998450279236,14.999998450279236C17.999998450279236,14.999998450279236,17.999998450279236,14.999998450279236,17.999998450279236,14.999998450279236ZM8.999998450279236,17.999998450279236C8.999998450279236,17.999998450279236,9.999998450279236,17.999998450279236,9.999998450279236,17.999998450279236C9.999998450279236,17.999998450279236,8.999998450279236,17.999998450279236,8.999998450279236,17.999998450279236C8.999998450279236,17.999998450279236,8.999998450279236,17.999998450279236,8.999998450279236,17.999998450279236ZM8.999998450279236,5.999998450279236C8.999998450279236,5.999998450279236,7.999998450279236,5.999998450279236,7.999998450279236,5.999998450279236C7.999998450279236,5.999998450279236,8.999998450279236,5.999998450279236,8.999998450279236,5.999998450279236C8.999998450279236,5.999998450279236,8.999998450279236,5.999998450279236,8.999998450279236,5.999998450279236ZM5.999998450279236,8.999998450279236C5.999998450279236,8.999998450279236,5.999998450279236,9.999998450279236,5.999998450279236,9.999998450279236C5.999998450279236,9.999998450279236,5.999998450279236,8.999998450279236,5.999998450279236,8.999998450279236C5.999998450279236,8.999998450279236,5.999998450279236,8.999998450279236,5.999998450279236,8.999998450279236ZM17.999998450279236,8.999998450279236C17.999998450279236,8.999998450279236,17.999998450279236,7.999998450279236,17.999998450279236,7.999998450279236C17.999998450279236,7.999998450279236,17.999998450279236,8.999998450279236,17.999998450279236,8.999998450279236C17.999998450279236,8.999998450279236,17.999998450279236,8.999998450279236,17.999998450279236,8.999998450279236ZM13.999998450279236,5.999998450279236C13.999998450279236,5.999998450279236,13.999998450279236,17.999998450279236,13.999998450279236,17.999998450279236C13.999998450279236,17.999998450279236,15.999998450279236,17.999998450279236,15.999998450279236,17.999998450279236C15.999998450279236,17.999998450279236,15.999998450279236,5.999998450279236,15.999998450279236,5.999998450279236C15.999998450279236,5.999998450279236,13.999998450279236,5.999998450279236,13.999998450279236,5.999998450279236C13.999998450279236,5.999998450279236,13.999998450279236,5.999998450279236,13.999998450279236,5.999998450279236ZM13.999998450279236,17.999998450279236C13.999998450279236,18.791098450279236,14.234598450279236,19.564498450279235,14.674098450279235,20.222298450279236C14.674098450279235,20.222298450279236,16.337098450279235,19.111098450279236,16.337098450279235,19.111098450279236C16.117298450279236,18.782198450279235,15.999998450279236,18.395598450279238,15.999998450279236,17.999998450279236C15.999998450279236,17.999998450279236,13.999998450279236,17.999998450279236,13.999998450279236,17.999998450279236C13.999998450279236,17.999998450279236,13.999998450279236,17.999998450279236,13.999998450279236,17.999998450279236ZM14.674098450279235,20.222298450279236C15.113598450279236,20.880098450279235,15.738398450279236,21.392798450279237,16.469298450279236,21.695498450279235C16.469298450279236,21.695498450279235,17.234598450279236,19.847798450279235,17.234598450279236,19.847798450279235C16.869198450279235,19.696398450279236,16.55679845027924,19.439998450279237,16.337098450279235,19.111098450279236C16.337098450279235,19.111098450279236,14.674098450279235,20.222298450279236,14.674098450279235,20.222298450279236C14.674098450279235,20.222298450279236,14.674098450279235,20.222298450279236,14.674098450279235,20.222298450279236ZM16.469298450279236,21.695498450279235C17.200198450279238,21.998298450279236,18.004398450279236,22.077498450279236,18.780398450279236,21.923098450279237C18.780398450279236,21.923098450279237,18.390198450279236,19.961598450279237,18.390198450279236,19.961598450279237C18.002198450279234,20.038698450279234,17.600098450279233,19.999098450279234,17.234598450279236,19.847798450279235C17.234598450279236,19.847798450279235,16.469298450279236,21.695498450279235,16.469298450279236,21.695498450279235C16.469298450279236,21.695498450279235,16.469298450279236,21.695498450279235,16.469298450279236,21.695498450279235ZM18.780398450279236,21.923098450279237C19.556298450279236,21.768798450279235,20.268998450279234,21.387798450279234,20.828398450279234,20.828398450279234C20.828398450279234,20.828398450279234,19.414198450279237,19.414198450279237,19.414198450279237,19.414198450279237C19.134498450279235,19.693898450279235,18.778098450279234,19.884398450279235,18.390198450279236,19.961598450279237C18.390198450279236,19.961598450279237,18.780398450279236,21.923098450279237,18.780398450279236,21.923098450279237C18.780398450279236,21.923098450279237,18.780398450279236,21.923098450279237,18.780398450279236,21.923098450279237ZM20.828398450279234,20.828398450279234C21.387798450279234,20.268998450279234,21.768798450279235,19.556298450279236,21.923098450279237,18.780398450279236C21.923098450279237,18.780398450279236,19.961598450279237,18.390198450279236,19.961598450279237,18.390198450279236C19.884398450279235,18.778098450279234,19.693898450279235,19.134498450279235,19.414198450279237,19.414198450279237C19.414198450279237,19.414198450279237,20.828398450279234,20.828398450279234,20.828398450279234,20.828398450279234C20.828398450279234,20.828398450279234,20.828398450279234,20.828398450279234,20.828398450279234,20.828398450279234ZM21.923098450279237,18.780398450279236C22.077498450279236,18.004398450279236,21.998298450279236,17.200198450279238,21.695498450279235,16.469298450279236C21.695498450279235,16.469298450279236,19.847798450279235,17.234598450279236,19.847798450279235,17.234598450279236C19.999098450279234,17.600098450279233,20.038698450279234,18.002198450279234,19.961598450279237,18.390198450279236C19.961598450279237,18.390198450279236,21.923098450279237,18.780398450279236,21.923098450279237,18.780398450279236C21.923098450279237,18.780398450279236,21.923098450279237,18.780398450279236,21.923098450279237,18.780398450279236ZM21.695498450279235,16.469298450279236C21.392798450279237,15.738398450279236,20.880098450279235,15.113598450279236,20.222298450279236,14.674098450279235C20.222298450279236,14.674098450279235,19.111098450279236,16.337098450279235,19.111098450279236,16.337098450279235C19.439998450279237,16.55679845027924,19.696398450279236,16.869198450279235,19.847798450279235,17.234598450279236C19.847798450279235,17.234598450279236,21.695498450279235,16.469298450279236,21.695498450279235,16.469298450279236C21.695498450279235,16.469298450279236,21.695498450279235,16.469298450279236,21.695498450279235,16.469298450279236ZM20.222298450279236,14.674098450279235C19.564498450279235,14.234598450279236,18.791098450279236,13.999998450279236,17.999998450279236,13.999998450279236C17.999998450279236,13.999998450279236,17.999998450279236,15.999998450279236,17.999998450279236,15.999998450279236C18.395598450279238,15.999998450279236,18.782198450279235,16.117298450279236,19.111098450279236,16.337098450279235C19.111098450279236,16.337098450279235,20.222298450279236,14.674098450279235,20.222298450279236,14.674098450279235C20.222298450279236,14.674098450279235,20.222298450279236,14.674098450279235,20.222298450279236,14.674098450279235ZM17.999998450279236,13.999998450279236C17.999998450279236,13.999998450279236,5.999998450279236,13.999998450279236,5.999998450279236,13.999998450279236C5.999998450279236,13.999998450279236,5.999998450279236,15.999998450279236,5.999998450279236,15.999998450279236C5.999998450279236,15.999998450279236,17.999998450279236,15.999998450279236,17.999998450279236,15.999998450279236C17.999998450279236,15.999998450279236,17.999998450279236,13.999998450279236,17.999998450279236,13.999998450279236C17.999998450279236,13.999998450279236,17.999998450279236,13.999998450279236,17.999998450279236,13.999998450279236ZM5.999998450279236,13.999998450279236C5.2088784502792365,13.999998450279236,4.435518450279236,14.234598450279236,3.777718450279236,14.674098450279235C3.777718450279236,14.674098450279235,4.888858450279236,16.337098450279235,4.888858450279236,16.337098450279235C5.217758450279236,16.117298450279236,5.604438450279236,15.999998450279236,5.999998450279236,15.999998450279236C5.999998450279236,15.999998450279236,5.999998450279236,13.999998450279236,5.999998450279236,13.999998450279236C5.999998450279236,13.999998450279236,5.999998450279236,13.999998450279236,5.999998450279236,13.999998450279236ZM3.777718450279236,14.674098450279235C3.119918450279236,15.113698450279236,2.607232450279236,15.738398450279236,2.3044814502792357,16.469298450279236C2.3044814502792357,16.469298450279236,4.152238450279236,17.234598450279236,4.152238450279236,17.234598450279236C4.303618450279236,16.869198450279235,4.559958450279236,16.55679845027924,4.888858450279236,16.337098450279235C4.888858450279236,16.337098450279235,3.777718450279236,14.674098450279235,3.777718450279236,14.674098450279235C3.777718450279236,14.674098450279235,3.777718450279236,14.674098450279235,3.777718450279236,14.674098450279235ZM2.3044814502792357,16.469298450279236C2.001731620279236,17.200198450279238,1.9225186502792357,18.004398450279236,2.076858650279236,18.780398450279236C2.076858650279236,18.780398450279236,4.038428450279236,18.390198450279236,4.038428450279236,18.390198450279236C3.961258450279236,18.002198450279234,4.000868450279236,17.600098450279233,4.152238450279236,17.234598450279236C4.152238450279236,17.234598450279236,2.3044814502792357,16.469298450279236,2.3044814502792357,16.469298450279236C2.3044814502792357,16.469298450279236,2.3044814502792357,16.469298450279236,2.3044814502792357,16.469298450279236ZM2.076858650279236,18.780398450279236C2.231199450279236,19.556298450279236,2.6121624502792358,20.268998450279234,3.171568450279236,20.828398450279234C3.171568450279236,20.828398450279234,4.585788450279235,19.414198450279237,4.585788450279235,19.414198450279237C4.3060784502792355,19.134498450279235,4.115598450279236,18.778098450279234,4.038428450279236,18.390198450279236C4.038428450279236,18.390198450279236,2.076858650279236,18.780398450279236,2.076858650279236,18.780398450279236C2.076858650279236,18.780398450279236,2.076858650279236,18.780398450279236,2.076858650279236,18.780398450279236ZM3.171568450279236,20.828398450279234C3.730988450279236,21.387798450279234,4.443718450279236,21.768798450279235,5.219638450279236,21.923098450279237C5.219638450279236,21.923098450279237,5.609818450279236,19.961598450279237,5.609818450279236,19.961598450279237C5.221858450279235,19.884398450279235,4.865488450279235,19.693898450279235,4.585788450279235,19.414198450279237C4.585788450279235,19.414198450279237,3.171568450279236,20.828398450279234,3.171568450279236,20.828398450279234C3.171568450279236,20.828398450279234,3.171568450279236,20.828398450279234,3.171568450279236,20.828398450279234ZM5.219638450279236,21.923098450279237C5.995558450279235,22.077498450279236,6.799828450279236,21.998298450279236,7.530738450279236,21.695498450279235C7.530738450279236,21.695498450279235,6.765368450279236,19.847798450279235,6.765368450279236,19.847798450279235C6.399918450279236,19.999098450279234,5.997778450279236,20.038698450279234,5.609818450279236,19.961598450279237C5.609818450279236,19.961598450279237,5.219638450279236,21.923098450279237,5.219638450279236,21.923098450279237C5.219638450279236,21.923098450279237,5.219638450279236,21.923098450279237,5.219638450279236,21.923098450279237ZM7.530738450279236,21.695498450279235C8.261638450279236,21.392798450279237,8.886358450279236,20.880098450279235,9.325878450279236,20.222298450279236C9.325878450279236,20.222298450279236,7.662938450279236,19.111098450279236,7.662938450279236,19.111098450279236C7.443178450279236,19.439998450279237,7.130818450279236,19.696398450279236,6.765368450279236,19.847798450279235C6.765368450279236,19.847798450279235,7.530738450279236,21.695498450279235,7.530738450279236,21.695498450279235C7.530738450279236,21.695498450279235,7.530738450279236,21.695498450279235,7.530738450279236,21.695498450279235ZM9.325878450279236,20.222298450279236C9.765408450279235,19.564498450279235,9.999998450279236,18.791098450279236,9.999998450279236,17.999998450279236C9.999998450279236,17.999998450279236,7.999998450279236,17.999998450279236,7.999998450279236,17.999998450279236C7.999998450279236,18.395598450279238,7.882698450279236,18.782198450279235,7.662938450279236,19.111098450279236C7.662938450279236,19.111098450279236,9.325878450279236,20.222298450279236,9.325878450279236,20.222298450279236C9.325878450279236,20.222298450279236,9.325878450279236,20.222298450279236,9.325878450279236,20.222298450279236ZM9.999998450279236,17.999998450279236C9.999998450279236,17.999998450279236,9.999998450279236,5.999998450279236,9.999998450279236,5.999998450279236C9.999998450279236,5.999998450279236,7.999998450279236,5.999998450279236,7.999998450279236,5.999998450279236C7.999998450279236,5.999998450279236,7.999998450279236,17.999998450279236,7.999998450279236,17.999998450279236C7.999998450279236,17.999998450279236,9.999998450279236,17.999998450279236,9.999998450279236,17.999998450279236C9.999998450279236,17.999998450279236,9.999998450279236,17.999998450279236,9.999998450279236,17.999998450279236ZM9.999998450279236,5.999998450279236C9.999998450279236,5.2088784502792365,9.765408450279235,4.435518450279236,9.325878450279236,3.777718450279236C9.325878450279236,3.777718450279236,7.662938450279236,4.888858450279236,7.662938450279236,4.888858450279236C7.882698450279236,5.217758450279236,7.999998450279236,5.604438450279236,7.999998450279236,5.999998450279236C7.999998450279236,5.999998450279236,9.999998450279236,5.999998450279236,9.999998450279236,5.999998450279236C9.999998450279236,5.999998450279236,9.999998450279236,5.999998450279236,9.999998450279236,5.999998450279236ZM9.325878450279236,3.777718450279236C8.886348450279236,3.119918450279236,8.261638450279236,2.607232450279236,7.530738450279236,2.3044814502792357C7.530738450279236,2.3044814502792357,6.765368450279236,4.152238450279236,6.765368450279236,4.152238450279236C7.130818450279236,4.303618450279236,7.443178450279236,4.559958450279236,7.662938450279236,4.888858450279236C7.662938450279236,4.888858450279236,9.325878450279236,3.777718450279236,9.325878450279236,3.777718450279236C9.325878450279236,3.777718450279236,9.325878450279236,3.777718450279236,9.325878450279236,3.777718450279236ZM7.530738450279236,2.3044814502792357C6.799828450279236,2.001731620279236,5.995558450279235,1.9225186502792357,5.219638450279236,2.076858650279236C5.219638450279236,2.076858650279236,5.609818450279236,4.038428450279236,5.609818450279236,4.038428450279236C5.997778450279236,3.961258450279236,6.399918450279236,4.000868450279236,6.765368450279236,4.152238450279236C6.765368450279236,4.152238450279236,7.530738450279236,2.3044814502792357,7.530738450279236,2.3044814502792357C7.530738450279236,2.3044814502792357,7.530738450279236,2.3044814502792357,7.530738450279236,2.3044814502792357ZM5.219638450279236,2.076858650279236C4.443718450279236,2.231199450279236,3.7309784502792356,2.6121624502792358,3.171568450279236,3.171568450279236C3.171568450279236,3.171568450279236,4.585788450279235,4.585788450279235,4.585788450279235,4.585788450279235C4.865488450279235,4.3060784502792355,5.221858450279235,4.115598450279236,5.609818450279236,4.038428450279236C5.609818450279236,4.038428450279236,5.219638450279236,2.076858650279236,5.219638450279236,2.076858650279236C5.219638450279236,2.076858650279236,5.219638450279236,2.076858650279236,5.219638450279236,2.076858650279236ZM3.171568450279236,3.171568450279236C2.6121624502792358,3.7309784502792356,2.231199450279236,4.443718450279236,2.076858650279236,5.219638450279236C2.076858650279236,5.219638450279236,4.038428450279236,5.609818450279236,4.038428450279236,5.609818450279236C4.115598450279236,5.221858450279235,4.3060784502792355,4.865488450279235,4.585788450279235,4.585788450279235C4.585788450279235,4.585788450279235,3.171568450279236,3.171568450279236,3.171568450279236,3.171568450279236C3.171568450279236,3.171568450279236,3.171568450279236,3.171568450279236,3.171568450279236,3.171568450279236ZM2.076858650279236,5.219638450279236C1.9225186502792357,5.995558450279235,2.001731620279236,6.799828450279236,2.3044814502792357,7.530738450279236C2.3044814502792357,7.530738450279236,4.152238450279236,6.765368450279236,4.152238450279236,6.765368450279236C4.000868450279236,6.399918450279236,3.961258450279236,5.997778450279236,4.038428450279236,5.609818450279236C4.038428450279236,5.609818450279236,2.076858650279236,5.219638450279236,2.076858650279236,5.219638450279236C2.076858650279236,5.219638450279236,2.076858650279236,5.219638450279236,2.076858650279236,5.219638450279236ZM2.3044814502792357,7.530738450279236C2.607232450279236,8.261638450279236,3.119918450279236,8.886348450279236,3.777718450279236,9.325878450279236C3.777718450279236,9.325878450279236,4.888858450279236,7.662938450279236,4.888858450279236,7.662938450279236C4.559958450279236,7.443178450279236,4.303618450279236,7.130818450279236,4.152238450279236,6.765368450279236C4.152238450279236,6.765368450279236,2.3044814502792357,7.530738450279236,2.3044814502792357,7.530738450279236C2.3044814502792357,7.530738450279236,2.3044814502792357,7.530738450279236,2.3044814502792357,7.530738450279236ZM3.777718450279236,9.325878450279236C4.435518450279236,9.765408450279235,5.2088784502792365,9.999998450279236,5.999998450279236,9.999998450279236C5.999998450279236,9.999998450279236,5.999998450279236,7.999998450279236,5.999998450279236,7.999998450279236C5.604438450279236,7.999998450279236,5.217758450279236,7.882698450279236,4.888858450279236,7.662938450279236C4.888858450279236,7.662938450279236,3.777718450279236,9.325878450279236,3.777718450279236,9.325878450279236C3.777718450279236,9.325878450279236,3.777718450279236,9.325878450279236,3.777718450279236,9.325878450279236ZM5.999998450279236,9.999998450279236C5.999998450279236,9.999998450279236,17.999998450279236,9.999998450279236,17.999998450279236,9.999998450279236C17.999998450279236,9.999998450279236,17.999998450279236,7.999998450279236,17.999998450279236,7.999998450279236C17.999998450279236,7.999998450279236,5.999998450279236,7.999998450279236,5.999998450279236,7.999998450279236C5.999998450279236,7.999998450279236,5.999998450279236,9.999998450279236,5.999998450279236,9.999998450279236C5.999998450279236,9.999998450279236,5.999998450279236,9.999998450279236,5.999998450279236,9.999998450279236ZM17.999998450279236,9.999998450279236C18.791098450279236,9.999998450279236,19.564498450279235,9.765408450279235,20.222298450279236,9.325878450279236C20.222298450279236,9.325878450279236,19.111098450279236,7.662938450279236,19.111098450279236,7.662938450279236C18.782198450279235,7.882698450279236,18.395598450279238,7.999998450279236,17.999998450279236,7.999998450279236C17.999998450279236,7.999998450279236,17.999998450279236,9.999998450279236,17.999998450279236,9.999998450279236C17.999998450279236,9.999998450279236,17.999998450279236,9.999998450279236,17.999998450279236,9.999998450279236ZM20.222298450279236,9.325878450279236C20.880098450279235,8.886358450279236,21.392798450279237,8.261638450279236,21.695498450279235,7.530738450279236C21.695498450279235,7.530738450279236,19.847798450279235,6.765368450279236,19.847798450279235,6.765368450279236C19.696398450279236,7.130818450279236,19.439998450279237,7.443178450279236,19.111098450279236,7.662938450279236C19.111098450279236,7.662938450279236,20.222298450279236,9.325878450279236,20.222298450279236,9.325878450279236C20.222298450279236,9.325878450279236,20.222298450279236,9.325878450279236,20.222298450279236,9.325878450279236ZM21.695498450279235,7.530738450279236C21.998298450279236,6.799828450279236,22.077498450279236,5.995558450279235,21.923098450279237,5.219638450279236C21.923098450279237,5.219638450279236,19.961598450279237,5.609818450279236,19.961598450279237,5.609818450279236C20.038698450279234,5.997778450279236,19.999098450279234,6.399918450279236,19.847798450279235,6.765368450279236C19.847798450279235,6.765368450279236,21.695498450279235,7.530738450279236,21.695498450279235,7.530738450279236C21.695498450279235,7.530738450279236,21.695498450279235,7.530738450279236,21.695498450279235,7.530738450279236ZM21.923098450279237,5.219638450279236C21.768798450279235,4.443718450279236,21.387798450279234,3.730988450279236,20.828398450279234,3.171568450279236C20.828398450279234,3.171568450279236,19.414198450279237,4.585788450279235,19.414198450279237,4.585788450279235C19.693898450279235,4.865488450279235,19.884398450279235,5.221858450279235,19.961598450279237,5.609818450279236C19.961598450279237,5.609818450279236,21.923098450279237,5.219638450279236,21.923098450279237,5.219638450279236C21.923098450279237,5.219638450279236,21.923098450279237,5.219638450279236,21.923098450279237,5.219638450279236ZM20.828398450279234,3.171568450279236C20.268998450279234,2.6121624502792358,19.556298450279236,2.231199450279236,18.780398450279236,2.076858650279236C18.780398450279236,2.076858650279236,18.390198450279236,4.038428450279236,18.390198450279236,4.038428450279236C18.778098450279234,4.115598450279236,19.134498450279235,4.3060784502792355,19.414198450279237,4.585788450279235C19.414198450279237,4.585788450279235,20.828398450279234,3.171568450279236,20.828398450279234,3.171568450279236C20.828398450279234,3.171568450279236,20.828398450279234,3.171568450279236,20.828398450279234,3.171568450279236ZM18.780398450279236,2.076858650279236C18.004398450279236,1.9225186502792357,17.200198450279238,2.001731620279236,16.469298450279236,2.3044814502792357C16.469298450279236,2.3044814502792357,17.234598450279236,4.152238450279236,17.234598450279236,4.152238450279236C17.600098450279233,4.000868450279236,18.002198450279234,3.961258450279236,18.390198450279236,4.038428450279236C18.390198450279236,4.038428450279236,18.780398450279236,2.076858650279236,18.780398450279236,2.076858650279236C18.780398450279236,2.076858650279236,18.780398450279236,2.076858650279236,18.780398450279236,2.076858650279236ZM16.469298450279236,2.3044814502792357C15.738398450279236,2.607232450279236,15.113698450279236,3.119918450279236,14.674098450279235,3.777718450279236C14.674098450279235,3.777718450279236,16.337098450279235,4.888858450279236,16.337098450279235,4.888858450279236C16.55679845027924,4.559958450279236,16.869198450279235,4.303618450279236,17.234598450279236,4.152238450279236C17.234598450279236,4.152238450279236,16.469298450279236,2.3044814502792357,16.469298450279236,2.3044814502792357C16.469298450279236,2.3044814502792357,16.469298450279236,2.3044814502792357,16.469298450279236,2.3044814502792357ZM14.674098450279235,3.777718450279236C14.234598450279236,4.435518450279236,13.999998450279236,5.2088784502792365,13.999998450279236,5.999998450279236C13.999998450279236,5.999998450279236,15.999998450279236,5.999998450279236,15.999998450279236,5.999998450279236C15.999998450279236,5.604438450279236,16.117298450279236,5.217758450279236,16.337098450279235,4.888858450279236C16.337098450279235,4.888858450279236,14.674098450279235,3.777718450279236,14.674098450279235,3.777718450279236C14.674098450279235,3.777718450279236,14.674098450279235,3.777718450279236,14.674098450279235,3.777718450279236Z" fill="#FFFFFF" fill-opacity="1"/></g></g></svg>