<svg xmlns="http://www.w3.org/2000/svg" xmlns:xlink="http://www.w3.org/1999/xlink" fill="none" version="1.1" width="16" height="16" viewBox="0 0 16 16"><defs><clipPath id="master_svg0_0_9941"><rect x="0" y="0" width="16" height="16" rx="0"/></clipPath></defs><g clip-path="url(#master_svg0_0_9941)"><g><path d="M14.666633373069763,11.33333C14.666633373069763,11.33333,15.166633373069763,11.33333,15.166633373069763,11.33333C15.166633373069763,11.05719,14.942833373069764,10.83333,14.666633373069763,10.83333C14.666633373069763,10.83333,14.666633373069763,11.33333,14.666633373069763,11.33333C14.666633373069763,11.33333,14.666633373069763,11.33333,14.666633373069763,11.33333ZM6.666663373069763,11.33333C6.666663373069763,11.33333,6.666663373069763,10.83333,6.666663373069763,10.83333C6.3905233730697635,10.83333,6.166663373069763,11.05719,6.166663373069763,11.33333C6.166663373069763,11.33333,6.666663373069763,11.33333,6.666663373069763,11.33333C6.666663373069763,11.33333,6.666663373069763,11.33333,6.666663373069763,11.33333ZM4.000003373069763,12.6667C4.000003373069763,12.6667,3.500003373069763,12.6667,3.500003373069763,12.6667C3.500003373069763,12.6667,4.000003373069763,12.6667,4.000003373069763,12.6667C4.000003373069763,12.6667,4.000003373069763,12.6667,4.000003373069763,12.6667ZM4.000003373069763,3.33333C4.000003373069763,3.33333,4.500003373069763,3.33333,4.500003373069763,3.33333C4.500003373069763,3.33333,4.000003373069763,3.33333,4.000003373069763,3.33333C4.000003373069763,3.33333,4.000003373069763,3.33333,4.000003373069763,3.33333ZM2.6666633730697633,2C2.6666633730697633,2,2.6666633730697633,1.5,2.6666633730697633,1.5C2.6666633730697633,1.5,2.6666633730697633,2,2.6666633730697633,2C2.6666633730697633,2,2.6666633730697633,2,2.6666633730697633,2ZM1.3333333730697632,3.33333C1.3333333730697632,3.33333,0.8333333730697632,3.33333,0.8333333730697632,3.33333C0.8333333730697632,3.33333,1.3333333730697632,3.33333,1.3333333730697632,3.33333C1.3333333730697632,3.33333,1.3333333730697632,3.33333,1.3333333730697632,3.33333ZM1.3333333730697632,5.33333C1.3333333730697632,5.33333,0.8333333730697632,5.33333,0.8333333730697632,5.33333C0.8333333730697632,5.60948,1.057191373069763,5.83333,1.3333333730697632,5.83333C1.3333333730697632,5.83333,1.3333333730697632,5.33333,1.3333333730697632,5.33333C1.3333333730697632,5.33333,1.3333333730697632,5.33333,1.3333333730697632,5.33333ZM4.000003373069763,5.83333C4.276143373069763,5.83333,4.500003373069763,5.60948,4.500003373069763,5.33333C4.500003373069763,5.05719,4.276143373069763,4.83333,4.000003373069763,4.83333C4.000003373069763,4.83333,4.000003373069763,5.83333,4.000003373069763,5.83333C4.000003373069763,5.83333,4.000003373069763,5.83333,4.000003373069763,5.83333ZM12.166633373069763,11.33333C12.166633373069763,11.6095,12.390533373069763,11.8333,12.666633373069763,11.8333C12.942833373069764,11.8333,13.166633373069763,11.6095,13.166633373069763,11.33333C13.166633373069763,11.33333,12.166633373069763,11.33333,12.166633373069763,11.33333C12.166633373069763,11.33333,12.166633373069763,11.33333,12.166633373069763,11.33333ZM11.333333373069763,2C11.333333373069763,2,11.333333373069763,1.5,11.333333373069763,1.5C11.333333373069763,1.5,11.333333373069763,2,11.333333373069763,2C11.333333373069763,2,11.333333373069763,2,11.333333373069763,2ZM10.000003373069763,5.83333C10.276143373069763,5.83333,10.500003373069763,5.60948,10.500003373069763,5.33333C10.500003373069763,5.05719,10.276143373069763,4.83333,10.000003373069763,4.83333C10.000003373069763,4.83333,10.000003373069763,5.83333,10.000003373069763,5.83333C10.000003373069763,5.83333,10.000003373069763,5.83333,10.000003373069763,5.83333ZM6.666663373069763,4.83333C6.3905233730697635,4.83333,6.166663373069763,5.05719,6.166663373069763,5.33333C6.166663373069763,5.60948,6.3905233730697635,5.83333,6.666663373069763,5.83333C6.666663373069763,5.83333,6.666663373069763,4.83333,6.666663373069763,4.83333C6.666663373069763,4.83333,6.666663373069763,4.83333,6.666663373069763,4.83333ZM10.000003373069763,8.5C10.276143373069763,8.5,10.500003373069763,8.27614,10.500003373069763,8C10.500003373069763,7.72386,10.276143373069763,7.5,10.000003373069763,7.5C10.000003373069763,7.5,10.000003373069763,8.5,10.000003373069763,8.5C10.000003373069763,8.5,10.000003373069763,8.5,10.000003373069763,8.5ZM6.666663373069763,7.5C6.3905233730697635,7.5,6.166663373069763,7.72386,6.166663373069763,8C6.166663373069763,8.27614,6.3905233730697635,8.5,6.666663373069763,8.5C6.666663373069763,8.5,6.666663373069763,7.5,6.666663373069763,7.5C6.666663373069763,7.5,6.666663373069763,7.5,6.666663373069763,7.5ZM5.333333373069763,14.5C5.333333373069763,14.5,13.333333373069763,14.5,13.333333373069763,14.5C13.333333373069763,14.5,13.333333373069763,13.5,13.333333373069763,13.5C13.333333373069763,13.5,5.333333373069763,13.5,5.333333373069763,13.5C5.333333373069763,13.5,5.333333373069763,14.5,5.333333373069763,14.5C5.333333373069763,14.5,5.333333373069763,14.5,5.333333373069763,14.5ZM13.333333373069763,14.5C13.819533373069763,14.5,14.285833373069764,14.3068,14.629733373069763,13.963C14.629733373069763,13.963,13.922633373069763,13.2559,13.922633373069763,13.2559C13.766333373069763,13.4122,13.554333373069763,13.5,13.333333373069763,13.5C13.333333373069763,13.5,13.333333373069763,14.5,13.333333373069763,14.5C13.333333373069763,14.5,13.333333373069763,14.5,13.333333373069763,14.5ZM14.629733373069763,13.963C14.973533373069763,13.6192,15.166633373069763,13.1529,15.166633373069763,12.6667C15.166633373069763,12.6667,14.166633373069763,12.6667,14.166633373069763,12.6667C14.166633373069763,12.8877,14.078833373069763,13.0996,13.922633373069763,13.2559C13.922633373069763,13.2559,14.629733373069763,13.963,14.629733373069763,13.963C14.629733373069763,13.963,14.629733373069763,13.963,14.629733373069763,13.963ZM15.166633373069763,12.6667C15.166633373069763,12.6667,15.166633373069763,11.33333,15.166633373069763,11.33333C15.166633373069763,11.33333,14.166633373069763,11.33333,14.166633373069763,11.33333C14.166633373069763,11.33333,14.166633373069763,12.6667,14.166633373069763,12.6667C14.166633373069763,12.6667,15.166633373069763,12.6667,15.166633373069763,12.6667C15.166633373069763,12.6667,15.166633373069763,12.6667,15.166633373069763,12.6667ZM14.666633373069763,10.83333C14.666633373069763,10.83333,6.666663373069763,10.83333,6.666663373069763,10.83333C6.666663373069763,10.83333,6.666663373069763,11.8333,6.666663373069763,11.8333C6.666663373069763,11.8333,14.666633373069763,11.8333,14.666633373069763,11.8333C14.666633373069763,11.8333,14.666633373069763,10.83333,14.666633373069763,10.83333C14.666633373069763,10.83333,14.666633373069763,10.83333,14.666633373069763,10.83333ZM6.166663373069763,11.33333C6.166663373069763,11.33333,6.166663373069763,12.6667,6.166663373069763,12.6667C6.166663373069763,12.6667,7.166663373069763,12.6667,7.166663373069763,12.6667C7.166663373069763,12.6667,7.166663373069763,11.33333,7.166663373069763,11.33333C7.166663373069763,11.33333,6.166663373069763,11.33333,6.166663373069763,11.33333C6.166663373069763,11.33333,6.166663373069763,11.33333,6.166663373069763,11.33333ZM6.166663373069763,12.6667C6.166663373069763,12.8877,6.078873373069763,13.0996,5.922583373069763,13.2559C5.922583373069763,13.2559,6.629693373069763,13.963,6.629693373069763,13.963C6.973513373069763,13.6192,7.166663373069763,13.1529,7.166663373069763,12.6667C7.166663373069763,12.6667,6.166663373069763,12.6667,6.166663373069763,12.6667C6.166663373069763,12.6667,6.166663373069763,12.6667,6.166663373069763,12.6667ZM5.922583373069763,13.2559C5.766303373069763,13.4122,5.554343373069763,13.5,5.333333373069763,13.5C5.333333373069763,13.5,5.333333373069763,14.5,5.333333373069763,14.5C5.819563373069763,14.5,6.285883373069763,14.3068,6.629693373069763,13.963C6.629693373069763,13.963,5.922583373069763,13.2559,5.922583373069763,13.2559C5.922583373069763,13.2559,5.922583373069763,13.2559,5.922583373069763,13.2559ZM5.333333373069763,13.5C5.1123233730697635,13.5,4.9003533730697635,13.4122,4.744073373069764,13.2559C4.744073373069764,13.2559,4.036973373069763,13.963,4.036973373069763,13.963C4.380783373069763,14.3068,4.847103373069763,14.5,5.333333373069763,14.5C5.333333373069763,14.5,5.333333373069763,13.5,5.333333373069763,13.5C5.333333373069763,13.5,5.333333373069763,13.5,5.333333373069763,13.5ZM4.744073373069764,13.2559C4.587793373069763,13.0996,4.500003373069763,12.8877,4.500003373069763,12.6667C4.500003373069763,12.6667,3.500003373069763,12.6667,3.500003373069763,12.6667C3.500003373069763,13.1529,3.693153373069763,13.6192,4.036973373069763,13.963C4.036973373069763,13.963,4.744073373069764,13.2559,4.744073373069764,13.2559C4.744073373069764,13.2559,4.744073373069764,13.2559,4.744073373069764,13.2559ZM4.500003373069763,12.6667C4.500003373069763,12.6667,4.500003373069763,3.33333,4.500003373069763,3.33333C4.500003373069763,3.33333,3.500003373069763,3.33333,3.500003373069763,3.33333C3.500003373069763,3.33333,3.500003373069763,12.6667,3.500003373069763,12.6667C3.500003373069763,12.6667,4.500003373069763,12.6667,4.500003373069763,12.6667C4.500003373069763,12.6667,4.500003373069763,12.6667,4.500003373069763,12.6667ZM4.500003373069763,3.33333C4.500003373069763,2.8471,4.306843373069763,2.380788,3.9630333730697633,2.036971C3.9630333730697633,2.036971,3.255923373069763,2.7440800000000003,3.255923373069763,2.7440800000000003C3.4122033730697634,2.90036,3.500003373069763,3.11232,3.500003373069763,3.33333C3.500003373069763,3.33333,4.500003373069763,3.33333,4.500003373069763,3.33333C4.500003373069763,3.33333,4.500003373069763,3.33333,4.500003373069763,3.33333ZM3.9630333730697633,2.036971C3.6192133730697633,1.693154,3.1528933730697632,1.5,2.6666633730697633,1.5C2.6666633730697633,1.5,2.6666633730697633,2.5,2.6666633730697633,2.5C2.887683373069763,2.5,3.099643373069763,2.5878,3.255923373069763,2.7440800000000003C3.255923373069763,2.7440800000000003,3.9630333730697633,2.036971,3.9630333730697633,2.036971C3.9630333730697633,2.036971,3.9630333730697633,2.036971,3.9630333730697633,2.036971ZM2.6666633730697633,1.5C2.1804333730697634,1.5,1.714121373069763,1.693154,1.370304373069763,2.036971C1.370304373069763,2.036971,2.0774133730697635,2.7440800000000003,2.0774133730697635,2.7440800000000003C2.2336933730697632,2.5878,2.445653373069763,2.5,2.6666633730697633,2.5C2.6666633730697633,2.5,2.6666633730697633,1.5,2.6666633730697633,1.5C2.6666633730697633,1.5,2.6666633730697633,1.5,2.6666633730697633,1.5ZM1.370304373069763,2.036971C1.0264873730697632,2.380788,0.8333333730697632,2.8471,0.8333333730697632,3.33333C0.8333333730697632,3.33333,1.8333333730697632,3.33333,1.8333333730697632,3.33333C1.8333333730697632,3.11232,1.9211333730697633,2.90036,2.0774133730697635,2.7440800000000003C2.0774133730697635,2.7440800000000003,1.370304373069763,2.036971,1.370304373069763,2.036971C1.370304373069763,2.036971,1.370304373069763,2.036971,1.370304373069763,2.036971ZM0.8333333730697632,3.33333C0.8333333730697632,3.33333,0.8333333730697632,5.33333,0.8333333730697632,5.33333C0.8333333730697632,5.33333,1.8333333730697632,5.33333,1.8333333730697632,5.33333C1.8333333730697632,5.33333,1.8333333730697632,3.33333,1.8333333730697632,3.33333C1.8333333730697632,3.33333,0.8333333730697632,3.33333,0.8333333730697632,3.33333C0.8333333730697632,3.33333,0.8333333730697632,3.33333,0.8333333730697632,3.33333ZM1.3333333730697632,5.83333C1.3333333730697632,5.83333,4.000003373069763,5.83333,4.000003373069763,5.83333C4.000003373069763,5.83333,4.000003373069763,4.83333,4.000003373069763,4.83333C4.000003373069763,4.83333,1.3333333730697632,4.83333,1.3333333730697632,4.83333C1.3333333730697632,4.83333,1.3333333730697632,5.83333,1.3333333730697632,5.83333C1.3333333730697632,5.83333,1.3333333730697632,5.83333,1.3333333730697632,5.83333ZM13.166633373069763,11.33333C13.166633373069763,11.33333,13.166633373069763,3.33333,13.166633373069763,3.33333C13.166633373069763,3.33333,12.166633373069763,3.33333,12.166633373069763,3.33333C12.166633373069763,3.33333,12.166633373069763,11.33333,12.166633373069763,11.33333C12.166633373069763,11.33333,13.166633373069763,11.33333,13.166633373069763,11.33333C13.166633373069763,11.33333,13.166633373069763,11.33333,13.166633373069763,11.33333ZM13.166633373069763,3.33333C13.166633373069763,2.8471,12.973533373069763,2.3807869999999998,12.629733373069763,2.036971C12.629733373069763,2.036971,11.922633373069763,2.7440800000000003,11.922633373069763,2.7440800000000003C12.078833373069763,2.90036,12.166633373069763,3.11232,12.166633373069763,3.33333C12.166633373069763,3.33333,13.166633373069763,3.33333,13.166633373069763,3.33333C13.166633373069763,3.33333,13.166633373069763,3.33333,13.166633373069763,3.33333ZM12.629733373069763,2.036971C12.285833373069764,1.693154,11.819533373069763,1.5,11.333333373069763,1.5C11.333333373069763,1.5,11.333333373069763,2.5,11.333333373069763,2.5C11.554333373069763,2.5,11.766333373069763,2.5878,11.922633373069763,2.7440800000000003C11.922633373069763,2.7440800000000003,12.629733373069763,2.036971,12.629733373069763,2.036971C12.629733373069763,2.036971,12.629733373069763,2.036971,12.629733373069763,2.036971ZM11.333333373069763,1.5C11.333333373069763,1.5,2.6666633730697633,1.5,2.6666633730697633,1.5C2.6666633730697633,1.5,2.6666633730697633,2.5,2.6666633730697633,2.5C2.6666633730697633,2.5,11.333333373069763,2.5,11.333333373069763,2.5C11.333333373069763,2.5,11.333333373069763,1.5,11.333333373069763,1.5C11.333333373069763,1.5,11.333333373069763,1.5,11.333333373069763,1.5ZM10.000003373069763,4.83333C10.000003373069763,4.83333,6.666663373069763,4.83333,6.666663373069763,4.83333C6.666663373069763,4.83333,6.666663373069763,5.83333,6.666663373069763,5.83333C6.666663373069763,5.83333,10.000003373069763,5.83333,10.000003373069763,5.83333C10.000003373069763,5.83333,10.000003373069763,4.83333,10.000003373069763,4.83333C10.000003373069763,4.83333,10.000003373069763,4.83333,10.000003373069763,4.83333ZM10.000003373069763,7.5C10.000003373069763,7.5,6.666663373069763,7.5,6.666663373069763,7.5C6.666663373069763,7.5,6.666663373069763,8.5,6.666663373069763,8.5C6.666663373069763,8.5,10.000003373069763,8.5,10.000003373069763,8.5C10.000003373069763,8.5,10.000003373069763,7.5,10.000003373069763,7.5C10.000003373069763,7.5,10.000003373069763,7.5,10.000003373069763,7.5Z" fill="#09090B" fill-opacity="1"/></g></g></svg>