<svg xmlns="http://www.w3.org/2000/svg" xmlns:xlink="http://www.w3.org/1999/xlink" fill="none" version="1.1" width="12" height="12" viewBox="0 0 12 12"><defs><clipPath id="master_svg0_0_10839"><rect x="0" y="0" width="12" height="12" rx="0"/></clipPath></defs><g clip-path="url(#master_svg0_0_10839)"><g><path d="M1.5,2.5C1.223858,2.5,1,2.72386,1,3C1,3.27614,1.223858,3.5,1.5,3.5C1.5,3.5,1.5,2.5,1.5,2.5C1.5,2.5,1.5,2.5,1.5,2.5ZM10.5,3.5C10.77614,3.5,11,3.27614,11,3C11,2.72386,10.77614,2.5,10.5,2.5C10.5,2.5,10.5,3.5,10.5,3.5C10.5,3.5,10.5,3.5,10.5,3.5ZM10,3C10,2.72386,9.77614,2.5,9.5,2.5C9.22386,2.5,9,2.72386,9,3C9,3,10,3,10,3C10,3,10,3,10,3ZM3,3C3,2.72386,2.77614,2.5,2.5,2.5C2.22386,2.5,2,2.72386,2,3C2,3,3,3,3,3C3,3,3,3,3,3ZM3.5,3C3.5,3.27614,3.72386,3.5,4,3.5C4.27614,3.5,4.5,3.27614,4.5,3C4.5,3,3.5,3,3.5,3C3.5,3,3.5,3,3.5,3ZM7.5,3C7.5,3.27614,7.72386,3.5,8,3.5C8.27614,3.5,8.5,3.27614,8.5,3C8.5,3,7.5,3,7.5,3C7.5,3,7.5,3,7.5,3ZM5.5,5.5C5.5,5.22386,5.27614,5,5,5C4.72386,5,4.5,5.22386,4.5,5.5C4.5,5.5,5.5,5.5,5.5,5.5C5.5,5.5,5.5,5.5,5.5,5.5ZM4.5,8.5C4.5,8.77614,4.72386,9,5,9C5.27614,9,5.5,8.77614,5.5,8.5C5.5,8.5,4.5,8.5,4.5,8.5C4.5,8.5,4.5,8.5,4.5,8.5ZM7.5,5.5C7.5,5.22386,7.27614,5,7,5C6.72386,5,6.5,5.22386,6.5,5.5C6.5,5.5,7.5,5.5,7.5,5.5C7.5,5.5,7.5,5.5,7.5,5.5ZM6.5,8.5C6.5,8.77614,6.72386,9,7,9C7.27614,9,7.5,8.77614,7.5,8.5C7.5,8.5,6.5,8.5,6.5,8.5C6.5,8.5,6.5,8.5,6.5,8.5ZM1.5,3.5C1.5,3.5,10.5,3.5,10.5,3.5C10.5,3.5,10.5,2.5,10.5,2.5C10.5,2.5,1.5,2.5,1.5,2.5C1.5,2.5,1.5,3.5,1.5,3.5C1.5,3.5,1.5,3.5,1.5,3.5ZM9,3C9,3,9,10,9,10C9,10,10,10,10,10C10,10,10,3,10,3C10,3,9,3,9,3C9,3,9,3,9,3ZM9,10C9,10.08738,8.951270000000001,10.21662,8.83395,10.33395C8.716619999999999,10.45127,8.58738,10.5,8.5,10.5C8.5,10.5,8.5,11.5,8.5,11.5C8.91262,11.5,9.28338,11.2987,9.54105,11.0411C9.79873,10.7834,10,10.41262,10,10C10,10,9,10,9,10C9,10,9,10,9,10ZM8.5,10.5C8.5,10.5,3.5,10.5,3.5,10.5C3.5,10.5,3.5,11.5,3.5,11.5C3.5,11.5,8.5,11.5,8.5,11.5C8.5,11.5,8.5,10.5,8.5,10.5C8.5,10.5,8.5,10.5,8.5,10.5ZM3.5,10.5C3.41262,10.5,3.28338,10.45127,3.16605,10.33395C3.04873,10.21662,3,10.08738,3,10C3,10,2,10,2,10C2,10.41262,2.20127,10.7834,2.4589499999999997,11.0411C2.71662,11.2987,3.08738,11.5,3.5,11.5C3.5,11.5,3.5,10.5,3.5,10.5C3.5,10.5,3.5,10.5,3.5,10.5ZM3,10C3,10,3,3,3,3C3,3,2,3,2,3C2,3,2,10,2,10C2,10,3,10,3,10C3,10,3,10,3,10ZM4.5,3C4.5,3,4.5,2,4.5,2C4.5,2,3.5,2,3.5,2C3.5,2,3.5,3,3.5,3C3.5,3,4.5,3,4.5,3C4.5,3,4.5,3,4.5,3ZM4.5,2C4.5,1.91262,4.54873,1.78338,4.66605,1.66605C4.78338,1.54873,4.91262,1.5,5,1.5C5,1.5,5,0.5,5,0.5C4.58738,0.5,4.21662,0.701274,3.95895,0.958947C3.70127,1.21662,3.5,1.58738,3.5,2C3.5,2,4.5,2,4.5,2C4.5,2,4.5,2,4.5,2ZM5,1.5C5,1.5,7,1.5,7,1.5C7,1.5,7,0.5,7,0.5C7,0.5,5,0.5,5,0.5C5,0.5,5,1.5,5,1.5C5,1.5,5,1.5,5,1.5ZM7,1.5C7.08738,1.5,7.21662,1.54873,7.33395,1.66605C7.45127,1.78338,7.5,1.91262,7.5,2C7.5,2,8.5,2,8.5,2C8.5,1.58738,8.298729999999999,1.21662,8.04105,0.958947C7.78338,0.701274,7.41262,0.5,7,0.5C7,0.5,7,1.5,7,1.5C7,1.5,7,1.5,7,1.5ZM7.5,2C7.5,2,7.5,3,7.5,3C7.5,3,8.5,3,8.5,3C8.5,3,8.5,2,8.5,2C8.5,2,7.5,2,7.5,2C7.5,2,7.5,2,7.5,2ZM4.5,5.5C4.5,5.5,4.5,8.5,4.5,8.5C4.5,8.5,5.5,8.5,5.5,8.5C5.5,8.5,5.5,5.5,5.5,5.5C5.5,5.5,4.5,5.5,4.5,5.5C4.5,5.5,4.5,5.5,4.5,5.5ZM6.5,5.5C6.5,5.5,6.5,8.5,6.5,8.5C6.5,8.5,7.5,8.5,7.5,8.5C7.5,8.5,7.5,5.5,7.5,5.5C7.5,5.5,6.5,5.5,6.5,5.5C6.5,5.5,6.5,5.5,6.5,5.5Z" fill="#525252" fill-opacity="1"/></g></g></svg>