<svg xmlns="http://www.w3.org/2000/svg" xmlns:xlink="http://www.w3.org/1999/xlink" fill="none" version="1.1" width="16" height="16" viewBox="0 0 16 16"><defs><clipPath id="master_svg0_0_10575"><rect x="0" y="0" width="16" height="16" rx="0"/></clipPath></defs><g clip-path="url(#master_svg0_0_10575)"><g><path d="M2.6666697615814208,14.16679609375C2.390523761581421,14.16679609375,2.166666761581421,14.39069609375,2.166666761581421,14.66679609375C2.166666761581421,14.94299609375,2.390523761581421,15.16679609375,2.6666697615814208,15.16679609375C2.6666697615814208,15.16679609375,2.6666697615814208,14.16679609375,2.6666697615814208,14.16679609375C2.6666697615814208,14.16679609375,2.6666697615814208,14.16679609375,2.6666697615814208,14.16679609375ZM13.33329976158142,5.00016609375C13.33329976158142,5.00016609375,13.83329976158142,5.00016609375,13.83329976158142,5.00016609375C13.83329976158142,4.86755609375,13.78069976158142,4.74037609375,13.68689976158142,4.64660609375C13.68689976158142,4.64660609375,13.33329976158142,5.00016609375,13.33329976158142,5.00016609375C13.33329976158142,5.00016609375,13.33329976158142,5.00016609375,13.33329976158142,5.00016609375ZM9.66666976158142,1.33349609375C9.66666976158142,1.33349609375,10.020219761581421,0.97994309375,10.020219761581421,0.97994309375C9.926449761581422,0.88617409375,9.79926976158142,0.83349609375,9.66666976158142,0.83349609375C9.66666976158142,0.83349609375,9.66666976158142,1.33349609375,9.66666976158142,1.33349609375C9.66666976158142,1.33349609375,9.66666976158142,1.33349609375,9.66666976158142,1.33349609375ZM3.999999761581421,1.33349609375C3.999999761581421,1.33349609375,3.999999761581421,0.83349609375,3.999999761581421,0.83349609375C3.999999761581421,0.83349609375,3.999999761581421,1.33349609375,3.999999761581421,1.33349609375C3.999999761581421,1.33349609375,3.999999761581421,1.33349609375,3.999999761581421,1.33349609375ZM2.6666697615814208,2.66682609375C2.6666697615814208,2.66682609375,2.166666761581421,2.66682609375,2.166666761581421,2.66682609375C2.166666761581421,2.66682609375,2.6666697615814208,2.66682609375,2.6666697615814208,2.66682609375C2.6666697615814208,2.66682609375,2.6666697615814208,2.66682609375,2.6666697615814208,2.66682609375ZM2.166666761581421,5.33349609375C2.166666761581421,5.60963609375,2.390523761581421,5.83349609375,2.6666697615814208,5.83349609375C2.9428097615814206,5.83349609375,3.1666697615814208,5.60963609375,3.1666697615814208,5.33349609375C3.1666697615814208,5.33349609375,2.166666761581421,5.33349609375,2.166666761581421,5.33349609375C2.166666761581421,5.33349609375,2.166666761581421,5.33349609375,2.166666761581421,5.33349609375ZM9.833329761581421,1.33349609375C9.833329761581421,1.05735409375,9.60947976158142,0.83349609375,9.333329761581421,0.83349609375C9.057189761581421,0.83349609375,8.833329761581421,1.05735409375,8.833329761581421,1.33349609375C8.833329761581421,1.33349609375,9.833329761581421,1.33349609375,9.833329761581421,1.33349609375C9.833329761581421,1.33349609375,9.833329761581421,1.33349609375,9.833329761581421,1.33349609375ZM9.333329761581421,5.33349609375C9.333329761581421,5.33349609375,8.833329761581421,5.33349609375,8.833329761581421,5.33349609375C8.833329761581421,5.60963609375,9.057189761581421,5.83349609375,9.333329761581421,5.83349609375C9.333329761581421,5.83349609375,9.333329761581421,5.33349609375,9.333329761581421,5.33349609375C9.333329761581421,5.33349609375,9.333329761581421,5.33349609375,9.333329761581421,5.33349609375ZM13.33329976158142,5.83349609375C13.609499761581421,5.83349609375,13.83329976158142,5.60963609375,13.83329976158142,5.33349609375C13.83329976158142,5.05735609375,13.609499761581421,4.83349609375,13.33329976158142,4.83349609375C13.33329976158142,4.83349609375,13.33329976158142,5.83349609375,13.33329976158142,5.83349609375C13.33329976158142,5.83349609375,13.33329976158142,5.83349609375,13.33329976158142,5.83349609375ZM2.3535527615814207,9.64660609375C2.158290761581421,9.45134609375,1.841708761581421,9.45134609375,1.646446761581421,9.64660609375C1.4511840615814209,9.84187609375,1.4511840615814209,10.15845609375,1.646446761581421,10.35371609375C1.646446761581421,10.35371609375,2.3535527615814207,9.64660609375,2.3535527615814207,9.64660609375C2.3535527615814207,9.64660609375,2.3535527615814207,9.64660609375,2.3535527615814207,9.64660609375ZM3.333329761581421,11.33349609375C3.333329761581421,11.33349609375,2.9797797615814208,11.68709609375,2.9797797615814208,11.68709609375C3.175039761581421,11.88229609375,3.491619761581421,11.88229609375,3.686889761581421,11.68709609375C3.686889761581421,11.68709609375,3.333329761581421,11.33349609375,3.333329761581421,11.33349609375C3.333329761581421,11.33349609375,3.333329761581421,11.33349609375,3.333329761581421,11.33349609375ZM6.353549761581421,9.02038609375C6.548819761581421,8.825116093750001,6.548819761581421,8.50853609375,6.353549761581421,8.31327609375C6.158289761581421,8.11801609375,5.841709761581421,8.11801609375,5.646449761581421,8.31327609375C5.646449761581421,8.31327609375,6.353549761581421,9.02038609375,6.353549761581421,9.02038609375C6.353549761581421,9.02038609375,6.353549761581421,9.02038609375,6.353549761581421,9.02038609375ZM2.6666697615814208,15.16679609375C2.6666697615814208,15.16679609375,11.999999761581421,15.16679609375,11.999999761581421,15.16679609375C11.999999761581421,15.16679609375,11.999999761581421,14.16679609375,11.999999761581421,14.16679609375C11.999999761581421,14.16679609375,2.6666697615814208,14.16679609375,2.6666697615814208,14.16679609375C2.6666697615814208,14.16679609375,2.6666697615814208,15.16679609375,2.6666697615814208,15.16679609375C2.6666697615814208,15.16679609375,2.6666697615814208,15.16679609375,2.6666697615814208,15.16679609375ZM11.999999761581421,15.16679609375C12.486199761581421,15.16679609375,12.952499761581421,14.97369609375,13.296399761581421,14.62989609375C13.296399761581421,14.62989609375,12.58929976158142,13.92279609375,12.58929976158142,13.92279609375C12.43299976158142,14.07899609375,12.220999761581421,14.16679609375,11.999999761581421,14.16679609375C11.999999761581421,14.16679609375,11.999999761581421,15.16679609375,11.999999761581421,15.16679609375C11.999999761581421,15.16679609375,11.999999761581421,15.16679609375,11.999999761581421,15.16679609375ZM13.296399761581421,14.62989609375C13.640199761581421,14.28599609375,13.83329976158142,13.81969609375,13.83329976158142,13.33349609375C13.83329976158142,13.33349609375,12.83329976158142,13.33349609375,12.83329976158142,13.33349609375C12.83329976158142,13.55449609375,12.74549976158142,13.76649609375,12.58929976158142,13.92279609375C12.58929976158142,13.92279609375,13.296399761581421,14.62989609375,13.296399761581421,14.62989609375C13.296399761581421,14.62989609375,13.296399761581421,14.62989609375,13.296399761581421,14.62989609375ZM13.83329976158142,13.33349609375C13.83329976158142,13.33349609375,13.83329976158142,5.00016609375,13.83329976158142,5.00016609375C13.83329976158142,5.00016609375,12.83329976158142,5.00016609375,12.83329976158142,5.00016609375C12.83329976158142,5.00016609375,12.83329976158142,13.33349609375,12.83329976158142,13.33349609375C12.83329976158142,13.33349609375,13.83329976158142,13.33349609375,13.83329976158142,13.33349609375C13.83329976158142,13.33349609375,13.83329976158142,13.33349609375,13.83329976158142,13.33349609375ZM13.68689976158142,4.64660609375C13.68689976158142,4.64660609375,10.020219761581421,0.97994309375,10.020219761581421,0.97994309375C10.020219761581421,0.97994309375,9.313109761581421,1.68704909375,9.313109761581421,1.68704909375C9.313109761581421,1.68704909375,12.97979976158142,5.35371609375,12.97979976158142,5.35371609375C12.97979976158142,5.35371609375,13.68689976158142,4.64660609375,13.68689976158142,4.64660609375C13.68689976158142,4.64660609375,13.68689976158142,4.64660609375,13.68689976158142,4.64660609375ZM9.66666976158142,0.83349609375C9.66666976158142,0.83349609375,3.999999761581421,0.83349609375,3.999999761581421,0.83349609375C3.999999761581421,0.83349609375,3.999999761581421,1.83349609375,3.999999761581421,1.83349609375C3.999999761581421,1.83349609375,9.66666976158142,1.83349609375,9.66666976158142,1.83349609375C9.66666976158142,1.83349609375,9.66666976158142,0.83349609375,9.66666976158142,0.83349609375C9.66666976158142,0.83349609375,9.66666976158142,0.83349609375,9.66666976158142,0.83349609375ZM3.999999761581421,0.83349609375C3.513769761581421,0.83349609375,3.047449761581421,1.02665009375,2.703639761581421,1.3704670937499999C2.703639761581421,1.3704670937499999,3.410739761581421,2.0775760937500003,3.410739761581421,2.0775760937500003C3.5670197615814208,1.92129609375,3.7789897615814207,1.83349609375,3.999999761581421,1.83349609375C3.999999761581421,1.83349609375,3.999999761581421,0.83349609375,3.999999761581421,0.83349609375C3.999999761581421,0.83349609375,3.999999761581421,0.83349609375,3.999999761581421,0.83349609375ZM2.703639761581421,1.3704670937499999C2.359820761581421,1.71428409375,2.166666761581421,2.18059609375,2.166666761581421,2.66682609375C2.166666761581421,2.66682609375,3.1666697615814208,2.66682609375,3.1666697615814208,2.66682609375C3.1666697615814208,2.44581609375,3.254459761581421,2.23385609375,3.410739761581421,2.0775760937500003C3.410739761581421,2.0775760937500003,2.703639761581421,1.3704670937499999,2.703639761581421,1.3704670937499999C2.703639761581421,1.3704670937499999,2.703639761581421,1.3704670937499999,2.703639761581421,1.3704670937499999ZM2.166666761581421,2.66682609375C2.166666761581421,2.66682609375,2.166666761581421,5.33349609375,2.166666761581421,5.33349609375C2.166666761581421,5.33349609375,3.1666697615814208,5.33349609375,3.1666697615814208,5.33349609375C3.1666697615814208,5.33349609375,3.1666697615814208,2.66682609375,3.1666697615814208,2.66682609375C3.1666697615814208,2.66682609375,2.166666761581421,2.66682609375,2.166666761581421,2.66682609375C2.166666761581421,2.66682609375,2.166666761581421,2.66682609375,2.166666761581421,2.66682609375ZM8.833329761581421,1.33349609375C8.833329761581421,1.33349609375,8.833329761581421,5.33349609375,8.833329761581421,5.33349609375C8.833329761581421,5.33349609375,9.833329761581421,5.33349609375,9.833329761581421,5.33349609375C9.833329761581421,5.33349609375,9.833329761581421,1.33349609375,9.833329761581421,1.33349609375C9.833329761581421,1.33349609375,8.833329761581421,1.33349609375,8.833329761581421,1.33349609375C8.833329761581421,1.33349609375,8.833329761581421,1.33349609375,8.833329761581421,1.33349609375ZM9.333329761581421,5.83349609375C9.333329761581421,5.83349609375,13.33329976158142,5.83349609375,13.33329976158142,5.83349609375C13.33329976158142,5.83349609375,13.33329976158142,4.83349609375,13.33329976158142,4.83349609375C13.33329976158142,4.83349609375,9.333329761581421,4.83349609375,9.333329761581421,4.83349609375C9.333329761581421,4.83349609375,9.333329761581421,5.83349609375,9.333329761581421,5.83349609375C9.333329761581421,5.83349609375,9.333329761581421,5.83349609375,9.333329761581421,5.83349609375ZM1.646446761581421,10.35371609375C1.646446761581421,10.35371609375,2.9797797615814208,11.68709609375,2.9797797615814208,11.68709609375C2.9797797615814208,11.68709609375,3.686889761581421,10.97999609375,3.686889761581421,10.97999609375C3.686889761581421,10.97999609375,2.3535527615814207,9.64660609375,2.3535527615814207,9.64660609375C2.3535527615814207,9.64660609375,1.646446761581421,10.35371609375,1.646446761581421,10.35371609375C1.646446761581421,10.35371609375,1.646446761581421,10.35371609375,1.646446761581421,10.35371609375ZM3.686889761581421,11.68709609375C3.686889761581421,11.68709609375,6.353549761581421,9.02038609375,6.353549761581421,9.02038609375C6.353549761581421,9.02038609375,5.646449761581421,8.31327609375,5.646449761581421,8.31327609375C5.646449761581421,8.31327609375,2.9797797615814208,10.97999609375,2.9797797615814208,10.97999609375C2.9797797615814208,10.97999609375,3.686889761581421,11.68709609375,3.686889761581421,11.68709609375C3.686889761581421,11.68709609375,3.686889761581421,11.68709609375,3.686889761581421,11.68709609375Z" fill="#09090B" fill-opacity="1"/></g></g></svg>